<mxfile host="Electron" agent="Mozilla/5.0 (Windows NT 10.0; Win64; x64) AppleWebKit/537.36 (KHTML, like Gecko) draw.io/24.7.5 Chrome/126.0.6478.183 Electron/31.3.0 Safari/537.36" version="24.7.5" pages="2">
  <diagram id="Vb0KptXLto8XbabVxVQt" name="Page-1">
    <mxGraphModel dx="1131" dy="2281" grid="1" gridSize="10" guides="1" tooltips="1" connect="1" arrows="1" fold="1" page="1" pageScale="1" pageWidth="850" pageHeight="1100" math="0" shadow="0">
      <root>
        <mxCell id="0" />
        <mxCell id="1" parent="0" />
        <mxCell id="qV9i3jS8pgXNSxZ-idtM-29" value="" style="rounded=1;whiteSpace=wrap;html=1;labelBackgroundColor=default;strokeColor=#9673a6;fontFamily=Helvetica;fontSize=12;fillColor=none;strokeWidth=3;shadow=0;glass=0;" parent="1" vertex="1">
          <mxGeometry x="176" y="560" width="594" height="330" as="geometry" />
        </mxCell>
        <mxCell id="qV9i3jS8pgXNSxZ-idtM-28" value="" style="rounded=1;whiteSpace=wrap;html=1;labelBackgroundColor=default;strokeColor=#82b366;fontFamily=Helvetica;fontSize=12;fillColor=none;strokeWidth=3;shadow=0;glass=0;" parent="1" vertex="1">
          <mxGeometry x="170" y="320" width="600" height="229.72" as="geometry" />
        </mxCell>
        <mxCell id="qV9i3jS8pgXNSxZ-idtM-27" value="" style="rounded=1;whiteSpace=wrap;html=1;labelBackgroundColor=default;strokeColor=#d6b656;fontFamily=Helvetica;fontSize=12;fillColor=none;strokeWidth=3;shadow=0;glass=0;" parent="1" vertex="1">
          <mxGeometry x="170" y="10" width="600" height="300" as="geometry" />
        </mxCell>
        <mxCell id="Y2H0RBBZ-v1cNcMeg0Ia-7" value="" style="rounded=1;whiteSpace=wrap;html=1;fillColor=#fff2cc;strokeColor=#d6b656;arcSize=20;dashed=1;dashPattern=8 8;" parent="1" vertex="1">
          <mxGeometry x="229.99" y="30" width="220" height="100" as="geometry" />
        </mxCell>
        <mxCell id="Y2H0RBBZ-v1cNcMeg0Ia-9" value="&lt;div align=&quot;center&quot;&gt;DÃ©veloppement local&lt;/div&gt;" style="text;whiteSpace=wrap;html=1;align=center;" parent="1" vertex="1">
          <mxGeometry x="244.99" y="106" width="190" height="54" as="geometry" />
        </mxCell>
        <mxCell id="mD0CMNtQQjGW3aupZHzg-11" value="Mysql" style="rounded=1;strokeWidth=0;fontSize=12;fillColor=#dae8fc;strokeColor=#6c8ebf;html=1;whiteSpace=wrap;align=center;" parent="1" vertex="1">
          <mxGeometry x="229.99" y="170" width="110" height="30" as="geometry" />
        </mxCell>
        <mxCell id="mD0CMNtQQjGW3aupZHzg-12" value="" style="rounded=1;whiteSpace=wrap;html=1;strokeWidth=0;fontSize=12;fillColor=#dae8fc;strokeColor=#6c8ebf;" parent="1" vertex="1">
          <mxGeometry x="229.99" y="130" width="110" height="40" as="geometry" />
        </mxCell>
        <mxCell id="mD0CMNtQQjGW3aupZHzg-22" value="3306" style="rounded=1;strokeWidth=0;fontSize=12;fillColor=#dae8fc;strokeColor=#6c8ebf;html=1;whiteSpace=wrap;align=center;" parent="1" vertex="1">
          <mxGeometry x="229.99" y="200" width="110" height="30" as="geometry" />
        </mxCell>
        <mxCell id="Y_FsoNFMzs4K3LGa42Ad-9" style="edgeStyle=orthogonalEdgeStyle;rounded=0;orthogonalLoop=1;jettySize=auto;html=1;horizontal=1;startArrow=classic;startFill=1;exitX=0.5;exitY=0;exitDx=0;exitDy=0;exitPerimeter=0;entryX=0.5;entryY=1;entryDx=0;entryDy=0;" parent="1" source="qV9i3jS8pgXNSxZ-idtM-5" target="C2gctmfY5S7cEnwOES8Q-8" edge="1">
          <mxGeometry relative="1" as="geometry">
            <mxPoint x="470" y="340" as="sourcePoint" />
            <mxPoint x="395" y="290" as="targetPoint" />
            <Array as="points">
              <mxPoint x="301" y="360" />
              <mxPoint x="395" y="360" />
            </Array>
          </mxGeometry>
        </mxCell>
        <mxCell id="Y_FsoNFMzs4K3LGa42Ad-7" value="&lt;div&gt;main&lt;/div&gt;" style="text;html=1;align=center;verticalAlign=middle;resizable=0;points=[];autosize=1;strokeColor=none;fillColor=none;" parent="1" vertex="1">
          <mxGeometry x="245.5" y="439.44" width="50" height="30" as="geometry" />
        </mxCell>
        <mxCell id="Y_FsoNFMzs4K3LGa42Ad-25" value="" style="group" parent="1" vertex="1" connectable="0">
          <mxGeometry x="470" y="360.57" width="100" height="100" as="geometry" />
        </mxCell>
        <mxCell id="Y_FsoNFMzs4K3LGa42Ad-19" value="" style="rounded=1;whiteSpace=wrap;html=1;fillColor=#fff2cc;strokeColor=#d6b656;dashed=1;dashPattern=8 8;" parent="Y_FsoNFMzs4K3LGa42Ad-25" vertex="1">
          <mxGeometry width="100.00000000000001" height="99.99999999999999" as="geometry" />
        </mxCell>
        <mxCell id="Y_FsoNFMzs4K3LGa42Ad-18" value="" style="shape=image;verticalLabelPosition=bottom;labelBackgroundColor=default;verticalAlign=top;aspect=fixed;imageAspect=0;image=https://cdn.freebiesupply.com/logos/large/2x/jenkins-1-logo-black-and-white.png;" parent="Y_FsoNFMzs4K3LGa42Ad-25" vertex="1">
          <mxGeometry x="26.107142857142822" y="10.714285714285714" width="43.81818181818182" height="71.42857142857143" as="geometry" />
        </mxCell>
        <mxCell id="Y_FsoNFMzs4K3LGa42Ad-29" value="git push/pull" style="text;html=1;align=center;verticalAlign=middle;resizable=0;points=[];autosize=1;strokeColor=none;fillColor=none;fontSize=12;fontFamily=Helvetica;fontColor=default;" parent="1" vertex="1">
          <mxGeometry x="400" y="325" width="90" height="30" as="geometry" />
        </mxCell>
        <mxCell id="qV9i3jS8pgXNSxZ-idtM-1" value="" style="edgeStyle=orthogonalEdgeStyle;curved=1;rounded=0;orthogonalLoop=1;jettySize=auto;html=1;endArrow=none;endFill=0;strokeWidth=4;entryX=0;entryY=0.5;entryDx=0;entryDy=0;entryPerimeter=0;" parent="1" source="qV9i3jS8pgXNSxZ-idtM-2" target="qV9i3jS8pgXNSxZ-idtM-3" edge="1">
          <mxGeometry relative="1" as="geometry">
            <mxPoint x="238.24999999999955" y="459.44" as="targetPoint" />
          </mxGeometry>
        </mxCell>
        <mxCell id="qV9i3jS8pgXNSxZ-idtM-2" value="" style="verticalLabelPosition=bottom;verticalAlign=top;html=1;strokeWidth=4;shape=mxgraph.flowchart.on-page_reference;strokeColor=#9673a6;fillColor=#e1d5e7;" parent="1" vertex="1">
          <mxGeometry x="290.5" y="444.44" width="20" height="20" as="geometry" />
        </mxCell>
        <mxCell id="C2gctmfY5S7cEnwOES8Q-17" style="edgeStyle=orthogonalEdgeStyle;rounded=0;orthogonalLoop=1;jettySize=auto;html=1;exitX=0.5;exitY=1;exitDx=0;exitDy=0;exitPerimeter=0;entryX=0;entryY=0.5;entryDx=0;entryDy=0;" edge="1" parent="1" source="qV9i3jS8pgXNSxZ-idtM-3" target="C2gctmfY5S7cEnwOES8Q-15">
          <mxGeometry relative="1" as="geometry" />
        </mxCell>
        <mxCell id="qV9i3jS8pgXNSxZ-idtM-3" value="" style="verticalLabelPosition=bottom;verticalAlign=top;html=1;strokeWidth=4;shape=mxgraph.flowchart.on-page_reference;strokeColor=#9673a6;fillColor=#e1d5e7;" parent="1" vertex="1">
          <mxGeometry x="365" y="444.44" width="20" height="20" as="geometry" />
        </mxCell>
        <mxCell id="qV9i3jS8pgXNSxZ-idtM-4" style="edgeStyle=orthogonalEdgeStyle;curved=1;rounded=0;orthogonalLoop=1;jettySize=auto;html=1;entryX=0;entryY=0.5;entryDx=0;entryDy=0;entryPerimeter=0;endArrow=none;endFill=0;strokeWidth=4;fontFamily=Courier New;fontColor=#009900;" parent="1" source="qV9i3jS8pgXNSxZ-idtM-5" target="qV9i3jS8pgXNSxZ-idtM-3" edge="1">
          <mxGeometry relative="1" as="geometry" />
        </mxCell>
        <mxCell id="qV9i3jS8pgXNSxZ-idtM-5" value="" style="verticalLabelPosition=bottom;verticalAlign=top;html=1;strokeWidth=4;shape=mxgraph.flowchart.on-page_reference;strokeColor=#d79b00;fillColor=#ffe6cc;" parent="1" vertex="1">
          <mxGeometry x="290.5" y="395.57" width="20" height="20" as="geometry" />
        </mxCell>
        <mxCell id="qV9i3jS8pgXNSxZ-idtM-6" value="dev" style="text;html=1;align=center;verticalAlign=middle;resizable=0;points=[];autosize=1;strokeColor=none;fillColor=none;" parent="1" vertex="1">
          <mxGeometry x="255.5" y="390.57" width="40" height="30" as="geometry" />
        </mxCell>
        <mxCell id="qV9i3jS8pgXNSxZ-idtM-8" value="&lt;i&gt;&lt;font style=&quot;font-size: 10px;&quot;&gt;merge&lt;br&gt;&lt;/font&gt;&lt;/i&gt;" style="text;html=1;align=center;verticalAlign=middle;resizable=0;points=[];autosize=1;strokeColor=none;fillColor=none;fontSize=12;fontFamily=Helvetica;fontColor=default;rotation=45;" parent="1" vertex="1">
          <mxGeometry x="320.5200000000001" y="395.57" width="50" height="30" as="geometry" />
        </mxCell>
        <mxCell id="qV9i3jS8pgXNSxZ-idtM-11" style="edgeStyle=orthogonalEdgeStyle;rounded=0;orthogonalLoop=1;jettySize=auto;html=1;exitX=0;exitY=0.5;exitDx=0;exitDy=0;fontFamily=Helvetica;fontSize=12;fontColor=default;startArrow=classic;startFill=1;endArrow=none;endFill=0;" parent="1" source="qV9i3jS8pgXNSxZ-idtM-20" target="qV9i3jS8pgXNSxZ-idtM-8" edge="1">
          <mxGeometry relative="1" as="geometry">
            <Array as="points">
              <mxPoint x="470" y="410" />
              <mxPoint x="422" y="410" />
            </Array>
          </mxGeometry>
        </mxCell>
        <mxCell id="qV9i3jS8pgXNSxZ-idtM-12" value="webhook" style="text;html=1;align=center;verticalAlign=middle;resizable=0;points=[];autosize=1;strokeColor=none;fillColor=none;fontSize=12;fontFamily=Helvetica;fontColor=default;" parent="1" vertex="1">
          <mxGeometry x="380" y="385.57" width="70" height="30" as="geometry" />
        </mxCell>
        <mxCell id="qV9i3jS8pgXNSxZ-idtM-16" value="1" style="ellipse;whiteSpace=wrap;html=1;aspect=fixed;strokeWidth=2;fontFamily=Tahoma;spacingBottom=4;spacingRight=2;strokeColor=#d3d3d3;labelBackgroundColor=default;fontSize=12;fontColor=default;fillColor=default;" parent="1" vertex="1">
          <mxGeometry x="390" y="330" width="20" height="20" as="geometry" />
        </mxCell>
        <mxCell id="qV9i3jS8pgXNSxZ-idtM-21" value="" style="edgeStyle=orthogonalEdgeStyle;rounded=0;orthogonalLoop=1;jettySize=auto;html=1;exitX=0;exitY=0.5;exitDx=0;exitDy=0;fontFamily=Helvetica;fontSize=12;fontColor=default;startArrow=classic;startFill=1;endArrow=none;endFill=0;" parent="1" source="Y_FsoNFMzs4K3LGa42Ad-19" target="qV9i3jS8pgXNSxZ-idtM-20" edge="1">
          <mxGeometry relative="1" as="geometry">
            <mxPoint x="470" y="411" as="sourcePoint" />
            <mxPoint x="367" y="411" as="targetPoint" />
            <Array as="points" />
          </mxGeometry>
        </mxCell>
        <mxCell id="qV9i3jS8pgXNSxZ-idtM-20" value="2" style="ellipse;whiteSpace=wrap;html=1;aspect=fixed;strokeWidth=2;fontFamily=Tahoma;spacingBottom=4;spacingRight=2;strokeColor=#d3d3d3;labelBackgroundColor=default;fontSize=12;fontColor=default;fillColor=default;" parent="1" vertex="1">
          <mxGeometry x="360" y="400.57" width="20" height="20" as="geometry" />
        </mxCell>
        <mxCell id="qV9i3jS8pgXNSxZ-idtM-23" value="3" style="ellipse;whiteSpace=wrap;html=1;aspect=fixed;strokeWidth=2;fontFamily=Tahoma;spacingBottom=4;spacingRight=2;strokeColor=#d3d3d3;labelBackgroundColor=default;fontSize=12;fontColor=default;fillColor=default;" parent="1" vertex="1">
          <mxGeometry x="429.99" y="529.72" width="20" height="20" as="geometry" />
        </mxCell>
        <mxCell id="qV9i3jS8pgXNSxZ-idtM-32" value="" style="endArrow=classic;html=1;rounded=0;fontFamily=Helvetica;fontSize=12;fontColor=default;exitX=0.5;exitY=1;exitDx=0;exitDy=0;entryX=0.922;entryY=-0.033;entryDx=0;entryDy=0;entryPerimeter=0;" parent="1" source="Y_FsoNFMzs4K3LGa42Ad-19" edge="1">
          <mxGeometry width="50" height="50" relative="1" as="geometry">
            <mxPoint x="200" y="590" as="sourcePoint" />
            <mxPoint x="494.8599999999997" y="488.0100000000002" as="targetPoint" />
          </mxGeometry>
        </mxCell>
        <mxCell id="qV9i3jS8pgXNSxZ-idtM-95" value="" style="endArrow=none;html=1;rounded=0;fontFamily=Helvetica;fontSize=12;fontColor=default;" parent="1" edge="1">
          <mxGeometry width="50" height="50" relative="1" as="geometry">
            <mxPoint x="440" y="530" as="sourcePoint" />
            <mxPoint x="440" y="520" as="targetPoint" />
          </mxGeometry>
        </mxCell>
        <mxCell id="qV9i3jS8pgXNSxZ-idtM-106" value="Environnement de dÃ©veloppement" style="text;html=1;align=center;verticalAlign=middle;resizable=0;points=[];autosize=1;strokeColor=#d6b656;fillColor=#fff2cc;fontSize=12;fontFamily=Helvetica;strokeWidth=3;" parent="1" vertex="1">
          <mxGeometry x="770" y="160" width="210" height="30" as="geometry" />
        </mxCell>
        <mxCell id="qV9i3jS8pgXNSxZ-idtM-107" value="OpÃ©rations de dÃ©ploiement" style="text;html=1;align=center;verticalAlign=middle;resizable=0;points=[];autosize=1;strokeColor=#82b366;fillColor=#d5e8d4;fontSize=12;fontFamily=Helvetica;strokeWidth=3;" parent="1" vertex="1">
          <mxGeometry x="770" y="434.86" width="170" height="30" as="geometry" />
        </mxCell>
        <mxCell id="qV9i3jS8pgXNSxZ-idtM-108" value="Pipeline" style="text;html=1;align=center;verticalAlign=middle;resizable=0;points=[];autosize=1;strokeColor=#9673a6;fillColor=#e1d5e7;fontSize=12;fontFamily=Helvetica;strokeWidth=3;" parent="1" vertex="1">
          <mxGeometry x="770" y="690" width="70" height="30" as="geometry" />
        </mxCell>
        <mxCell id="qV9i3jS8pgXNSxZ-idtM-110" value="SchÃ©ma gÃ©nÃ©ral &amp;amp; Ci-Cd" style="text;html=1;align=center;verticalAlign=middle;resizable=0;points=[];autosize=1;strokeColor=none;fillColor=none;fontSize=13;fontFamily=Helvetica;fontColor=default;container=1;fontStyle=1" parent="1" vertex="1">
          <mxGeometry x="105" y="-30" width="170" height="30" as="geometry" />
        </mxCell>
        <mxCell id="lo5av93iD-MGFTgDSvVA-1" value="" style="shape=image;html=1;verticalAlign=top;verticalLabelPosition=bottom;labelBackgroundColor=#ffffff;imageAspect=0;aspect=fixed;image=https://cdn4.iconfinder.com/data/icons/thin-line-icons-for-seo-and-development-1/64/seo_programming-128.png" parent="1" vertex="1">
          <mxGeometry x="281.52000000000004" y="2" width="128" height="128" as="geometry" />
        </mxCell>
        <mxCell id="ttXJ1z16NPR0VP8hWBoP-1" value="&lt;div&gt;SSH&lt;/div&gt;" style="text;html=1;align=center;verticalAlign=middle;resizable=0;points=[];autosize=1;strokeColor=none;fillColor=none;" parent="1" vertex="1">
          <mxGeometry x="360" y="519" width="50" height="30" as="geometry" />
        </mxCell>
        <mxCell id="C2gctmfY5S7cEnwOES8Q-5" value="" style="shape=image;verticalLabelPosition=bottom;labelBackgroundColor=default;verticalAlign=top;aspect=fixed;imageAspect=0;image=data:image/webp,UklGRn4VAABXRUJQVlA4THEVAAAv/8F/EP/nOJIkR8m+Q/PHM/w3Q0MjNs6GcNy2kSSxuhuY/OOYtDaC/d2C5YCSImXrtaxUCne5/w24DOHXnaKSIj39orZtGwbeUnkHK8n5hkffnLb+YQ7+llBaVkSLmkVtAigIoAAtmgICFEAH/zoCxjkqAMhfgCCAhgyXqAjyB1GQIX/WIFi4NBCWYv7S0FtFhiTJIBmaBayImcRJBsnETSFiQQMEXuSfKEIiEKBpooBOKzIISBQhhpmCaaOJBohYIIHjOB4Ix9+Ic6UNVsSsxItEMcI6CJQW27DSxBwmJ7JSDSHT6kKnGGZKEQWB2gIUBSjaCk7qljs8EAvG49sD94piuX/M0NEJAvn7tNNpdtvuz9vFy7Ojr+94vOIIG1jBSUJ4w/5/fdP+/+5J6Yo7E2Ru+PbG54K7+wqlVJLcizvDXcZwt7mj8yHDbS6ffdDhHa4tFNrmwkueL3kmzfNSIvo/AYj6P+r/qP+j/o/6P+r/qP+j/o/6P+r/qP+j/o/6P+r/qP+jUv9xerW6r4189nSZAh4lV3AgTXb8e3aGcquQSsH4p7aqtU9o5YBVXnVW2G8J2XSVR5F5XqflDVepsXnU7/Rae78I+cI5FVZDp92yXODu/tOtBZh6Mp/yCvbSKQr9YPH/+U2R7feqrvzU9ofZnU8nmmLqfYrrK51qpoBLEzubIU/lKq11OnUFgLv3dTLD5y+rrFsBTcJdESDnoZ4mmPjn5PcXzv220NabMeoJDTV8Swy4+bcJ08eHlN0eVEuP6xwOWgCsaGuFtsuwGZsU0h4dLrAENwZapD366BpVhDd12mVbgtwT1pFscXaLGiqmw6esAR5ItoFMrrhLBWGEDmdbhB3/+G0gez2YoYAu9NTpdtkirWd34RlTHz8z6rn6nYTIZoXVDx7Q4esx1pm+vu+3TgLk6GvKx/M/HVZ1BIDg1xV7mGN8Wa/iwcW2OlzsEAAxC46ZIl/9XvHgv2Sd5IKOAbB/eMAMUz/MVDuYocM2sQ4Czo8KmCD7FVA7qKTDUY4CttUyw5SzXqVz91UdlnEWULifCfLgFZWDuD46PTc7DN773jDBtIUqB6V0+LLXYcDtMQEjcmiOwsHvOnzXcUCRVibYeKvCyein0+uK85B9KmDEtLnqBlt7afisBblfpZ99vGIxG4B9HYwYeDxX2WCaTqCQ2K0BJJn6sccGZFUzIl/YomyCBzWsJ4ZzSdQOybUBeCvBiG3OqxoU8Gn4gxjK6PBhW1CguRH7FFU1+FPnhAWYotPzoi24XsOIveepmt0pmsRYC4KjNPzDHngm+Qzof0DRoIaG71iA7COal2wCDvQxIB/1qJm3dA5agSWaWrbhfFsjVvEqmdt+TeCCFXfakfzQPqxvZMQxQRWD/hpOswLTSBZzALJeNGJFj4p5ROegJdldWBeOzBhmxDMeBfONjn+LFXiw0U1nwFvRiKcVjLejhp9aEnsDTvVUMuJ49YKTOnUtcXKwihF/US/bdFJvuAve0UaBWcoFzTSc7zJ4hxowsZBymagz2G3IrGnA4+tVy+aAJvGW2xDzkgHr5ygW/KvhPNfhRgsD1vYqluk6Q9yH8/EGnKBYrqVqkm+4DwdSDQJvqxXU1LCsBPCzAfvEqZXZOsdkgCcNONKrVHKPa7hGBpmHDPiwUsEUnUoywOU+Br4vlMrlVE3yBRlgTkCPHS6pFFTTsKIUcMqAI5TKjoAmJb8UMl82YBmVgkEaVpYCNicYdLumUgoGNP6vpYCyBhymUvCPhn3vSiF40IBzVMrOFA0fkQK+7G1wPEuh4CmdlG1SwHsGPKNSLnXVsNMVKWTWNwh8oVAwU4etr8gA3/v02CxXoaC2DlvflAHOGHCGSrnQQ4ev3pHBtZ4GHbIVCvYn6bCsDPCeASuoFHzRS+eIRwYxrQ06ZKoUzNThFhlgqQGXKhXPEZ0bUvC8YvCyUrnbSpPglQKKG3CNSilL7QBIsr/BGZVyWOdDWcw0SNuoTjYEdIrJIuYNPX6qTspQ294rC4w16KdOKuo8BmmuNeAaZdJP5wd5oIFBJVWSk6JpCImWN0i4rkgOUFtBJltS9PixIhmv8e2SCaoYtMtUI/00b0KqBQJ6TFciNwOaB+SCmgYNPCpkPrU/SqaYAQ+okDOa4x7J4KDBmyqkoWY0ZLvcIPCV+rjr17wrHU9DPf6tPgpQu086SDdIuaA8SunEySeztR4nKI/3Nb2C8sF0g/jrquOEpgkknN1Fj5NUx0jNizLCVINuGxVHY82zUsrqqcdfFEdbzRkp4XGDbhvVRh/NBDltSNLjx2ojVTNZTqhk0DVHZcRQO96S93a4b5NPj++qjHt0plixLzDcfRhm0DFGYcRYFteF/ovuW2PAsgoDPs2TYtn1SZZ2H1406HBXYfTQVBUbTZLVJVDKgIsUxnHNIKHV1CZdc1+whUHbTHXRXPOvyOUEHU5yH6YbcL66eEnTSqQq9dtnuu9WV4PGQWVRVePLMLfDb8Bl7sNDBiypLCZqeN7cWBofksA9aQavelTFTJ15pu72McHt7sPjBvxcVRTUmWTqW5odJoFraQaHg4rihk4NU0+Y8u10H84a8D5Fgb6a7kEzr5niCQls7GSQsFlRVNJwh4nc3uaS17sPiwx4LE5NpOs8YKIA9XsP0vCkBDKPGbBXxbUqIk7nORMzDV5Y59Mk3HAf9qQYkGxSPp9yQCuNf5fRYwa/o7qGpyWAR8yQ8VO2qIbfNPzE6B+D+7DOp0mKk8CdBqbIpDF71MJencNGrxkUBKpr+LcEsKmNOZIjSwYVQrCNhl8bdNZLiQHW+TT+HRLAxYopAmSzJRnKAA/pDNXLDug1A4DqGg6XAXDzo5YCZLsFQVWwK0WTclXnS+qP0KzzaVhECkCw8O/tzJH1CysCjNGwuk4Jgyc1qKbTzysHAJ5t44+aIitfVwNf+jT+NZqfDRbprPNpOEMaADyFnuxkhu32KQFU1LBZPgBnDQ7ooKpO1yyJAMj9aWiiEflnrAq4Ha/hK5eAPw3y613rquEpuQC4vvBlI7bfrwCwWoddpm/4Vy/Jq4e5OqnnZQNg7YiAHv1TMiN/qKFj9iCMK2s4UEJAiVZ65Cv5I3/XOos8aOLu6xqmywg54/x6jJ8V8cM3vc2lxJlA/o6arjdkBOxtrkdWzIj0oWSSqcow/UMPkvxbToh53KfHVy9E+rC/h4lmWebwRRJJlpATULCFHrvuj/Rh9yCDOlsgWtpHsmW2pLBxjB59v3gifMDapxq0PFypMCxcTJKnZQWU7q5D/nMr0mfnp37SX1ha2DJcj8filAXeSiHbZkkLwfKJOuxYUFngp0RylLyAK3V1mFRGWaBIT/IzicGzuo+GnKos8FUrvhEnMWDLEB1OVRa48Txfz5YZ8HNvDd9RFsgcx2c8UkPReE1SIWUBLEmZJDes0LDtDXWBlT1Kyinr8g/bdZtpOCioLrCtfXGpXN8741TNfp0p/qjCwJ52xWSRU+qpBn5avlphYE2r7TK4O2t4Em39P5WBdf2LuC3m7RN9aOvR33/KVhq4NrKsq3b9nUA7O9Uu9yXUp3dRusc9d1rQWn+HQ8889sCKDVCluS7anWxB46eX/JAJdf6owPHRZTZAsa/3GTWavDQ/VPz/jI7nQM3/kGrAXxUdPjQKlFF0d/oZMOUzNYfNbxgwMNmr5PC2z4AcsFnJYbEJppXLdcmNb+aX+3DK1IUlrsliy4GFU6d8UPaztbERMUw1QR772nkb3jrTnCYbj9/kvp1TmtI40Ghc6UuRLyz2mWDgr9uOul3hGIUDz2x219X/C1A08Or02BB3afknT9d+uW/XPj3p+K12BK+WfqTqyPot7e/bf3jl97/dYk8aRSc5Dyu7miC7/+xxTObZNFqasNBN9/eipX3KB0PXD481DNC9lnmLPXoojQ7vNKj8Jplh/QAz5Mh1Drn0Ci3/zeOW4DhaXmdjaIqt0Ijutia4788udGmTKQXkhdxHA2aYXM7jhJh/aeNJt4yjjXVyQ9DFD+Ppdivu3N+Crn5+v7SAb9uZIUflc8AjtLWMO2bQ1umhp8wbdL8Fs1vR9fW2SguxVUyx+Ve2xSbak7beDVcT7el6J8TcU4syFMoZShkmTZMWULKTGSYst+tn2jzUDbVp8+zQcu0YJbSrISVZNVNauP5rLxP0zbCpql3+H51XkHafDClZTSmhXUcpzWe90gI2VPIZkb96bGlgFys7r4Ztz4WUIZRQTH9K9HGJAZuf7m3E3z12dLGt9w2n7fTb1jSUfEYZnaZMA/tlBmyZ0sOAT9qRZBvfc9pTtL1DCPE0sSzQx+mbzPzokwr75koNuP5RJz1OsIHCz4u1z3TWxV5izwt1DyEraWH8P+8t23YDbh5NawP/ni5TbMcVGzdtn/NLrV5WMF1yQMz97XU4yTnvNhfiLGdNovBrD4ewP8WSfrkFt2f1tiThkTg4MvvToxaMlB6QPTVNEyjlmGmLxV52VMZxsVlnQ1hfsXlw/0xaWfcmHJtdUSxwW37AzcoBkgk/OCa7qxDXOmkBhVvnhrCLAaG6kGAlK6rlwsmPCrF0KABWdCTZ5ppT8IjYaAd5Goi9ixC2g8I/y+AlCxpnw9GeAUJnQwMuDSbZ8LZTriUJJd90TgkKx+cLZXvFtsugowWz4PCvhf4KEcDPCWTD2w7BCSF+4JxBYo8hlM0WuyCDBLFeGU7ztBV5NmTgx0Zkw9sOOR8Q6pzhlPMBoZTdIW2e2G4Z+MQaw/GDRAaFDmT/STa85QwMF+ICp5ygcDXkfZ533ujQBcxP5HsOKS7WzyHXeottzwM957yqoQx74ztkOgP1hbjXGQ9T+HmoBuxp/5ZD0sVGOSKmi9hy+cVtFz0f8cDNhx2S2VbIl98JMyjcLOiEJRS+46zKFG0W+bDSIrwvxAkO8DQVWwgnpEumr00XIin5egi9ccu+5RTuHOOIZZJpZtOeSAqeFOKn9tUTmwhHlJRMX5tmRVTy+4Qae+zaQ+HES87YJ7PPxSpFVDBEiCXs+lusIpxRXGbFxNIuRlQKiY2waVeykH+rQ76QWT6/EKtFVDBAyL/JnvEUrgWHFJZMM3N4QYxP3YmkzBHib7bk9BErEg7MsoCN59+KnASPCPXMZ8cDFO6PcCDY3wIy6YWxvyxMX2Xt/r07siIJWCTEsjZ4W4gtdUxxqeF8ohW2xx+uXva/jAjBrW5CLYLWzaFwm9zwAKX8ztNNHJweGwnAh0J827oBYp/AMfslh2XJ7iCZXK1QBOBmktBAywpRuEe+sAFft3cLyZe+y/PhT6FAAauGiZ1G+ICLT/lcQ9aMy+sVCIiwokVxqUKpFxxUQn7Ajufdw/iZeTz8v1DiRWueoHA1OOiAZJpaA2yvmOYW8pQnb1dCiO9bcr2H2JrQ1cwq4Pri2mku4di8neeYUNtcKz6h8AsIQwBk7v2gbls38IE8HcoIcZUFuW3E3nbUyhCim7N96fsfPl6x+hDxGi+0SLYq+Wqe7k4HoYMWzKJws6Cj9oUae4O7lj/Z3AoOy9PhIyFuF3tVbAYc9VM4oQ3OOmpBcmyeLitNqIpQUQp3iXHW25Jp6j7gdj8xzsvT4TehpGsig8XOwlmzww/c01Lsk7zdFZ8IJwpc9Qv1vu2wkmEIZor9mrfDKKGOd8yNo/AZOKxUOLI+0rBNiOmmshKEAuucVjocyYo04CWh1029R+FacNpcFTJPiN+YyGwnVsRxs1SIt4XQMBPzKfw6HLc0j1Fgu4U5eQDcJ5S626i+2FvO+0wyTUJekXiKN9iQB8juJsLxBvsp3C7Teel5DBRoJ8ajm8I/TBbqk603XOwTOK9MXgOXm4mx0/fh34ZkES7RWRcQ6nndBQsk0zQEvSKES6+KsWdxU6Md9GAYgb+EGuicofATcMG94VaSWFpQCDmDxJg8y8w/IiPMdBM6HU7sCIiwMIDbvYVS49zwczhyyZbjYtwuhsy/xeifbuRpJfKMmVZC1cMJ1BGqAWAihZ+BG94Ri3FXEzkUF5toppEFky2A5zExcrxHby1FK5l5UahjMJz4Vsh/BXc7i21zxTKx70OfZ7jYIjP1LOi5xQLg3YAYx+TqDBf60MwZIf4UTngaiPAJLKHwSLiioNip0Pc+xd82M9kC1rljBT5LFuOIbAD3U3ipmflirWPDCNwrFJ+vsdhsd9xJEEr9LsTlTqa4P8vMt1awRqwVOJAmxpcvesr6xQqYuekTYuPNYUTGcRHWpHDfoDvwlxAT0z0hzDvvdVr4IszmJFjB1vNzLcCazmJsWpfibTxmMEKMvX9fFzbgPSELP4VLdviEyGNLrsgh9oqzt/43t8KobrR0nimcsoRsN255fo8INrUUs/QJmC5sAcm2VSZ99vX2H684+YKk7kmwq2u2W/CbBSTbH6pRuaITm9kziZL812suLtUabWKXlqJdnJCy2RxGWOLGtpLCOLs+gGti+lniWiklnYfgeOvc+TsEd3cPazan2pN4zT3YdSSs8a2CaObLMmmyUQQrU8IZVLHnJFyE9fXDmNTVEI9rJY/OX0J8bko4synVjsSbrsKtKmFL9+KwclcjWTTfDCu/6B7GYLIdH8NdwOetw5MRu2HtPTWkEKicBWt31Q5jMhpY94rXdcj45Hj4cWQurJ/byX0vfgfrSzYJW3C5vVVHN8B9QMaCg4GwotnPubAz9qOO7grMgq3eec+HK1jX0prmmyAFAJfL1UkKExL/3uuB3RlLBvhdxDbrbAFw5Zd/fWEJro8OiAVG54M0AGQUml7xheN+1zSWQqDBEyty4MwNiwYmuobdC9oEIHb25DpdQkF/4aU2AQWqdDf3RtUdsHtGf9HnbNL3btmxZr8j69uzur/j6w6u+mv6tnxw9J1vyp14pYPfqoR2DQ/WqvrHI5+snjdSjL2W26ab/eO+GZOrDKnzYn8n13aYG73FFj8x5M0XXqwz5NSivbkI7fXsCaW5WeuvWHgpE2bv/iPG1NWOiHiGDY70PiXGwFmlBrwvRo4LKjUs9IlxSEakp054hc8Txfj89QhPPaF+YQ6K9hFj/ZsRHU97obrhDgq0F+PRTZGc/RSuHvbgQhMxdtkWubnYXGxa+IOsAWJM2Bep2daY4t+HQciuJcaUmZEY77ejUyne1BMOIfdPMQbK5+G8+12Z/uigzrR0McJjzxUrvXm3HMq06d0wKcIoFX8xKL6yUHuBSVB7STOh9g7vgdLreH8uVF7f6begcN3Xeex3Hihdd3Ucdv95D1Rvdn9XvvDsiQ8X/HcPov6P+j/q/6j/o/6P+j/q/6j/o/6P+j/q/6j/o/6P+j/q/6jSAQA=;" vertex="1" parent="1">
          <mxGeometry x="247.26" y="115" width="70" height="70" as="geometry" />
        </mxCell>
        <mxCell id="C2gctmfY5S7cEnwOES8Q-6" value="Springboot" style="rounded=1;strokeWidth=0;fontSize=12;fillColor=#dae8fc;strokeColor=#6c8ebf;html=1;whiteSpace=wrap;align=center;" vertex="1" parent="1">
          <mxGeometry x="340" y="170" width="110" height="30" as="geometry" />
        </mxCell>
        <mxCell id="C2gctmfY5S7cEnwOES8Q-7" value="" style="rounded=1;whiteSpace=wrap;html=1;strokeWidth=0;fontSize=12;fillColor=#dae8fc;strokeColor=#6c8ebf;" vertex="1" parent="1">
          <mxGeometry x="340" y="130" width="110" height="40" as="geometry" />
        </mxCell>
        <mxCell id="C2gctmfY5S7cEnwOES8Q-8" value="9000" style="rounded=1;strokeWidth=0;fontSize=12;fillColor=#dae8fc;strokeColor=#6c8ebf;html=1;whiteSpace=wrap;align=center;" vertex="1" parent="1">
          <mxGeometry x="340" y="200" width="110" height="30" as="geometry" />
        </mxCell>
        <mxCell id="C2gctmfY5S7cEnwOES8Q-11" value="" style="shape=image;verticalLabelPosition=bottom;labelBackgroundColor=default;verticalAlign=top;aspect=fixed;imageAspect=0;image=data:image/png,iVBORw0KGgoAAAANSUhEUgAAAgAAAAIACAYAAAD0eNT6AAAACXBIWXMAAAsTAAALEwEAmpwYAAAgAElEQVR4nO3dCXgd1XnwcbJvDVnapk2bpc3Wpmm+LnT50qZ1k4B9z1xjCMQQCAlZSGhCSAj90iRkUVJCkGaujI1twEAMGLPY7DaLwYCsOVeLbcnyLu+2bMubbMu2rH0533NGmDrgRcvMfWfm/n/P8z7t06Sge+573nfuzJlzzjgDAAAAAAAAAAAAAAAAAAAAAAAAAAAAAAAAAAAAAAAAAAAAAAAAAAAAAAAAAAAAAAAAAAAAAAAAAAAAAAAAAAAAAAAAAAAAAAAAAAAAAAAAAAAAAAAAAAAAAAAAAAAAAAAAAAAAAAAAAAAAAAAAAAAAAAAAAAAAAEavVI//AOMIAEARmVF31htcrepKKsa8XvpvAQAABZLT2W952jE5P/M5Bh0AhvkL6kadfZdXdc57Junsh2yUL1KfzOnsWUH4mc+5Onu2p5VydXaiDa/Sydr/m41cpfMvL/93q8b/5bF/hv1n8kUgSvZXv6vVZnsB4Go1g9EGUNSmPJ15U85XHyvLO5/xtHOR62e+7Wr1c9d3Jnta3ev6ztOeVott4XR957AtnlGF6zsDru8ccH1no+s7S1ytFrhaPeBqNd3T6teur64ty6uL7UVEeXX2T+fOnfg66fFDcri+c9lx+baPxwAAUv+L3f7C9irVZ8t05uuur663jd3TTt711U7bdKNs6hFHr+erJtd3tOc793naKfO0+m5ZPuPYz1xiSl4rPf6IB5sLrnbWHJ8/Oa3Okf67AGDU7K+Z0kXOx+0vZFc7N7i+M8/VaourVV8MGrVIuL7qcLWzzNXqftd3fupWqgs9P/NX9qKIlCsunnYueFV+aOcO6b8LAIbFPn8Pnqn76lpPq7s8repd7XRJN9ykhOs7PZ5Wa+1dA1dnrnF99a8ldePfShqml135/6pc8NV+LgYBxJZ9zl2qx33Crl52tZp1bBETEfJFgVZ99haxHeOcVt/P6cyn7foI6e8fo+f6TuYUF4MZxhhALEypzZzp5jNjPa1+6Wm10NVOG81e8hGCqgy+i0rn37kgSCbPV/5Jv2ff+a303wegSNlbz3bRmqfVza6vlhfzM/vYh6/a7UWZp9VPynXm/7KKPP7shdupv1d1sGT1xDdK/50AikRZftxf2NvM9jU3Tzud4o2NGOkFwRFXqyc93/lBefXYj0jnFV7tpTl2yu/RXoAzdgAiUV498S2DG+Go0mDxGQ03lRcdwV4JWk2x3zV3B+TlFmX+bmivuaq7pP9WAClSXj323Z52vjG4mQ0r9IvuYsB39rramZnz1fnes+e8TTofi5GrnceGeOHWyvoOAKNyU8V573Qrna/a3fMGXzWTb0RELMag0+7LkPOdS3jdsDDsmzPD2eSqzFfjC/SnAUgLW9A9nTnX02ouv/TFG20i3iywuWJzhnfQo/PSzpBD/160mhXhnwMgLeyq4cGDboJbjCzii0FjTexjAt+Z6ubHf8qYM14jnddpYRdkjuBtmkM8BgBwUvb0Otd3cvYgEenmQaRrDAY3eFK/zFWOfT9TcHTsFr8j+Q5y+ewExh7Ay+yvguBIW7spT7IPziGSMAa+6h/cACo7kTcJhq+0IvM+z1fdI7oI853ZlD4AZ9iDdexre65WLeJNgSjKMQhOa9SqlLsCQ2dfwxzFxdcR+8ou5Q8oQnZRluc7X3a1qpUu/gRj8L8XAsEbJQ/b42tZK3DqQ7IGd2scxUWXzn6+gCUHgLSy/IS3D+7M52yn8dJ445wDru9stLlaUjHmzdLzJm48X9046vHV6n7pzwGgAG6sGPdnL93mb5Uu7ARjMLwLAbXHLhq0G05RLM44o3Th2e8IYx672jnKxk1A2rcI1WqWp51eGi+NN8k5YE+LtM+9S/X4D5xRxFytfh7amFaqC6U/D4CQeZVO1tPOIumiTTAG0awTUPe6fub/FFvhsL/YPV/tD28s1RzpzwQgJPZwFk+rxTReGm/ac+ClV1Xnu3nnb4ulgHha/Veo42gXEnJ+A5BsOZ35tOerF6WLMsEYCO0nMNcePX1Gyvfp8HzVHMEYXiT92QCMgN1a1f4KovHSeIs+B45dCCzKfjSNxcT1M9+O5E6Kdh6S/mwAhsE+/xw8aIXGxxiQA694NNBjF766+cyH07Rvh6vVlojuoLRPqxjze9KfEcBp2NucnlaPs1UvTY8Ln9P+su1ytXLta3NJLyyezl4e7WOU7BelPyOAk7ip4rx3Dr7H73RR+Gn+5MCwfuHuf2lDodcnscCUmJLXer6zOsrv3PXVI9KfE8AJJr+r1VfscaoUfRo/OTCqJtdYls84SSsygwd0RZ77nVNqM2dKf1YALynLO59xfbWcok/jJwfCzAG1sFSP+0RSCo2rVV0hvn9Xq0ulPytQ9OziJVc7j1H0afzkQFS3vJ0e13cmx319wEsbehUoD9Tj0p8XKFoldePfynN+mj5Nv4A5YN+r9zNfOCOmXK2qCpgPPAYAJHiVzr97vrOO4s8FADkgkAO+85Q9MCtujwAFxuHL0p8bKLbV/TN4rY/GT+MXzgG7La5WvyxZPfGNZ8SAq53nCz0Gru/Mk/7cQFHwdOZc11c7Kfw0f3IgVjmwolxn/q9kbSitzP6T0EVQ9406+y7Jzw6kWmlF5n2ur56IQaEjGANy4ES/hLXqs0cPSx2UI1sfspdLfGYg1Yw54zUvvdN/gMZD4yEH4p8Ddvvdsnz23wpZJ+wrioPnGoh95icL+XmBovjVz2l98gWdYAxG0BD7XO3cUKi1Aa5WD4jmKY8BgPB42rnAbkdK86H5kAPJzQHXV6vcvPO30e8BovqkP6vnq69F+TmBYnmvf4r4ZCYYA3IgnIuA4CyO7I/mzp34uihqhqudmXH4rlzfeTqKzwcUBc93/tnznU3SE5lgDMiBCBqkVpVh7xtQqsd/wO5QGIfvy/4dv1l8/u+H+fmA1LO/DOwvhLhMZIIxIAcia5KH7UE9YdUOz3emxem7ylWqK8L6bEDqBVfwWlVKT1yCMSAHCpcDdiOv0S4QnFxz7h+5vuqI1ffmO8+GVx2BtG/qo1Wr+KQlGANyoOA54GpV61U5Hxx5/XDKYvi99eYqxv9BuJUSSJESU/JaV6tfsZWveLEiGAPRHBjc3yNz7nBrSHn12Hd7vjoSx+/P9dU3o6mcQMJNqc2cybG98kWKYAzikgP2h4B982c4jwQ8X90o/XefPNTCaKsokEDlOvs3rlab5ScowRiQAzHMgbxb4fzxkJ79a+doDP7ek0WvV3XOewpTVYEEcH3nssGTw8QnJ8EYkAPxzYEdOZ0961S1xPPVTTH4O08ZrnauLFx1BWJqRt1Zb/C0ull6QhKMATmQkBzwVXtZXl18sreGPO10iv+Npw0eA6DI2dWwru9o+clIMAbkQJJyYHCBsPq1XTB8fE1xtbpf+m8bYvA2AIqX3Z/b8511MZiIBGNADiQ1B3znqdKFZ79jsKaM/1SS3hxiUyAUJTtRPe3sk56ABGNADiQ/B1ztrAx+UGi1WPpvGV6oZ6RrMVBQnp/94uDhH9KTj2AMyIG05EDsdvwb0t/s9Nyos++iBaEo5LT6vuerfumJRzAG5AA5EIcccCudr0rXZSBSJRVjXu/6zq3Sk41gDMgBcmAkOTB7+Q/MPcu+G0X+zKf9ILWmVYz5PbtQh8JL4SUHyIGk5sDmg0tMddP9of9z7ePQY4sYgVS5wc/8oaudZdKTl2AMyAFyYKQ5MKvhamPMgGlp3xZJHuXymS9J12ogVHbLTrs6l8JL4SUHyIEk58CmA7XmmDvrvhn6P9+efUL7QWrY3bhc39koPXEJxoAcIAdGkwP3NlwT/Po/ZtHW30aRU532EDTpug2Mmld57p+7Wm2h8FJ4yQFyIOk50NTaYI7XfKQxkn+Pq7MTaT9ItNJFzsc9XzVLT1qCMSAHyIHR5sDDq39hXm3A3LbkK+FfAPjObOn6DYxYWeX4v3e1aqHwUnjJAXIg6TmQ01mzt23TCS4AjFm4aXoU/85DJasnvpEWhMRxffWvNoGlJy3BGJAD5EAYOfDMhknmZLa1LovookOdI13LgWE3f1c7Rym8FF5ygBxIQw5Mqb7QHO0+cNILgP6BXjO15uLw/92+M432g8Rw887felodlJ6wBGNADpADYeVA3c7HzOk8tT4Xes65vtppzBmvka7rwGl5Vdm/9ny1n8JL4SUHyIG05MDM+iuDX/ins2F/dTR/Q1XmH2k/iLXy6rEfcbWzS3qyEowBOUAOhJcDWdN0aIUZip7+LjO56vMR5J/6tXR9B04qVzn2/Z52tlJ4KbzkADmQphxYsGGyGY7H114f/t/hO6tpP4ilyTXn/pHnO+ukJyrBGJAD5ECYOTCt9oumo+fwsC4AVu15LpI8zPnqY9K1HvgduYrxf2CvTim8FF5ygBxIWw6sa/GH1fyt9p7WYL+A0P+eSueHtB/Eht2nmlP95IsUwRiQA+HnwGNrrzcjNXv5taH/Pa7vaOmaDwRm1J31Bs93nqXw0HzIAXIgbTkwvfaS4Jf8SNVsfzD8CwCt+uwd1zMAaZ52bpGepARjQA6QA1HkwIb9VWY09h3dEsnf5frOZdK1H0WuzFfXUXgpvOQAOZDGHFiwcYoJw+1Lvxb+BYBWD0jXfxQxTzsXeb7ql56kBGNADpADYefAHUuvMN197aFcAER1ONCMurPeIN0HUIRyOvNpTzudFF4KLzlADqQtByZVnXfSk/5GYsvBpZH8nWV+Zox0L0CRcfOZD3va2Sc9SQnGgBwgB6LIgYZdT5ow9fX3BAcIhf13ulq50v0AReQ3i8//fVc76ym8FF5ygBxIYw48vvbXJgr2VcLwLwCcNdI9AUXCPm+y759KT1CCMSAHyIEocuC3dd8yXb1HI7kAWLnn2Uj+5kk6+yHp3oAi4PrOVAovhZccIAfSmANTay4yrZ3NJipR7Qro+s7V0r0BKedqdan0BCUYA3KAHIgiB3L58cFCvajd23BN+BcAWi2Q7g9IsXKd/RvPV+0UX4ovOUAOpDEH6psfN4VQ3XR/BBcATte0ijG/J90nkEI36uy7PN/ZJD1BCcaAHCAHosiBZzZMMoWyp21TRHmcOVe6VyBlSkzJaz3feYrCS+ElB8iBNObAfcuvDV7RK5wBM7320vA/i+9Mk+4XSBnPd/5HeoISjAE5QA5EkQO3LL7MtHXvN4X25Dov9M/i+s5G6X6BFCnz1Xi2+aXw0nzJgTTmwJTqLwS34yWs2ftCJJ/JzWc+LN03kAI3Voz7M1erVulJSjAG5AA5EHYO3FR1vtl+aKWRcrT7oPEieB3Q853vSPcOpOG5v3YWUXgpvOQAOZDG1/3Wt+SNtLuXXRXB51OPS/cPJJznO7+QnqQEY0AOkAPh50A22I0vDiq3zgz/8/nqCKcDYsTK8uofXN/pofhSfMkBciBtObB05yMmLppal0fyGcs4HRAj+uX/7Dlv45Af+SJFMAbkQPg5oLfNMnHSN9BrJkdxOqDv/IYOiOFfAGh1F4WH5kMOkANpy4HnNk4zcfTImpIIPq+qp/1hmM3fuUB6khKMATlADoSdA0+vLzcDZsDEUX3zvNA/r+s7A17VOe+hBWJIyquzf+r6zgGKL8WXHCAH0pQDz268ObbN3zrQsSOSz53znUtofxjiVr/qRemJSjAG5AA5EGYOLNw0Pdh2N+5uX/q10HPf1c4dtD+clutnvk3hpfCSA+RAmnLAvmKXFPYuRfgXAGoz7Q+nVJaf8Cfs9idfrAjGgBwozuZvbdhfFcn3f2PFuD+jBeLkv/618xiFh+ZDDpADacmBxTseMknT1XvUlOfPDX0synTm67Q/nJCnnYukJyvBGJAD5EA4OZA19c1PmKSavfya0OeC6zuzaX94ldKFZ7/D81UzxZfiSw6QA0nPgUn5CWbN3hdNkkWxLbCrnV3GnPEaWiBeeet/pvSkJRgDcoAcGG0OTK25SPRUv7BsPrgkkvlQusj5OO0Pxy38cz4TbBRB8aEBkQPkQIJzwL4+Z9+jT4Puvo5I1gG4Wl1F+0OgpG78Wz3f2SQ9cQnGgBwgB0aTA/aZeXtPq0mTaNYBqEdof3jp1r8qpfBSeMkBciDJOfD42utNT3+XSZtI1gH4zgG72RstsMhN0tkPudrpkp68BGNADpADI82BFzbPiPXWvqOx5eDSSOZGuc7+jXT/gTBPq8cpvBRecoAcSOpK/+W7nzZpFtk6AN+5Wrr/QJBXqT4rPYEJxoAcIAdGkgO3Lv6yaT7SaIrB7OU/iGCeqLk04CI1d+7E13naWUHxpfiSA+RA0nLggZX/bY52HzTFwt96V+hj6Ppqj3QfghAO+5EvYgRjQA4MNweywfP+/oFeU0y2HKyLJFdyvvoYTbjI3FRx3jtdrVooPjQgcoAcSEoOTKm+0Kxr0aYY9QTrACaEfwFQqa6Q7kcoMM9XN0lPZoIxIAfIgaHmwG/rvmVa2reZYjZ7+bXhzxnfuYcGXETKq8d+xPNVN8WX4ksOkANJyIGn15cHK+GLnb/17tDH1tVqi3RPQgHx2p98QSMYA3Lg9Dlwc81Es3Zfsg/zCdPWg/WR5E2ucuz7acJFIKezZ7HfP82H5kMOxD0H5qy6zhzpapHuubHS09cZyToAV6tLpXsTCsDT6hnpiU0wBuQAOXCyHJhUdZ5ZvOOh1O7qN1qzGr4X/vzx1W004JTLVTr/QuGl8JID5EBcc2Bm/X+avUc3S/fYWHt+0y1RjP0K6f6EiHm+elF6ghOMATlADrwyB3I6a17ccrvp7e+W7q+xt2bvi1HcAeifUps5kyacUmX57L9ReCm85AA5ELccuLPuCtN0aIV0X02M1s5d0XwXleqz0n0KEXG1qpSe6ARjQA6QA8dywC5ms8fc9vX3SPfUxJlee2noc8n1nZ/SgFMoV5kdR+Gl8JID5EBccuD+FT80+9ubpPtoYj265ldRXADMk+5ViICrVa30hCcYA3KAHLDv9dc3P8EK/1Gq2f5g+BcAWrUYc8ZraMIp4lU6WQovhZccIAekc8D+auW9/nA0tS6P5Dsqrx77EemehRDx7J/CL134ieIeg7vqv222ttaH1Ppw7GCgXH586N+V6zuX0YBToiyv/kF68hOMATlQnDkwtebi4HZ//0AfXTsCdy+7KvzvzXemSfcthMTznQeliwDBGJADxbe6/9mNN5uOnsM0/gg9t3Fq6N+dq1UdDTgFvCrng552eqWLAcEYkAPFkwNzV13H6v4CWbVnYfgXAL7TU1Ix5s3S/Quj5PnqJuliQDAG5EBx5IC9Hd3U2lCo3gdjzIGOHZF8l6WV2X+iASeY3dLR9Z3D0kWBYAzIgXTnwMz6K82avS+YgYF+mnLBDZhpNReH/736znekexhGwdPZH0kXBoIxIAfSmwO3L/2aWbH7GRq/sIdX/yKKC4Df0oATakbdWW9wtbNdukAQjAE5kM7Gb589s7I/Hqqb7g/9O3Z9tVy6j2GEPN/5snSRIBgDciBdOXDbksuDV/rYtz9ethxcGsEFgNNTXj3xLTThBPK0WixdLAjGgBxIzyY+q/Y8R+OPqfae1mi+e9/5Z+lehmEqX6Q+KV0wCMaAHEjHYT2bDiwOFpoh3m5d/OXQv39Xq6towAnj+s5U6cJBMAbkQDJzYFJ+gpnX+Buzu229dE+D9MmA2pkp3c8wDPaZjafVQekiQjAG5ECycmBqzUWmcutM09Z9gMabQFVNs6PIixU04ARh8Z98ISUYgyTlwKyG7wWv8vX0dUr3MIzCxv01UeRHLzsCJojnK1+6oBCMATkQ/1/7dp/+lvZtNN2UONK1L5JcKasc//fSfQ1DUJYf9xeu7wxIFxeCMSAH4pcDOZ0N9uhf16JN30CvdL9CBKbXXhpB7mQvpwEngKedcukiQzAG5EC8cuDehmvMkh0Pm8Nd+2i6KffQqp+Fnj+u7+SkextOo2T1xDd62tknXWwIxoAciMd7+1VN95mDHTulexIKaNGWO6O4AHiOBhxznnYuki46BGNADtD0IWf13ucjmINqt3R/w2l4Wj1O8aUBkwPFkwOTqy8MnunbrXkPde6h78LsPbo5mnyrOuc9NOGYKstPeLunnU7pgkQwBuRAdDmQy48PXtmz7+pva20w/SzkwyvYMxrK8xPCzz0/8znpPoeT4N1/Gi+NN305MKnqPHPf8mvNi1tuN+tb8qaz9wgND6dl13+Eno++8wMacEx52pkvXawIxoAcGF0O3Lr4smA718U7HjI7D68xvf3dtDsM2/x1paHPRZctgePpporz3ulqp4viSwMmB5Kz1779lfb0+vKg2dvDdo6y/S5CUrP9wfDz1neWSvc6nIDnq69JFzSCMSAHfjcHyvPnmtuXft3MXfVT89zGqcF7+Bv3V5vWzl1mgJP1ECF7QRnBHYA2Y854DU04ZjytnqH40oDJgcLmgN1x7e5lV5lH1pSYBRunBAex2P30t7UuC5p8/0AfTQ4ibP5FkfPl1dk/le53OM6NOvsuz1fdFH8uAMiBkd+Ov2Xxl8zM+v8096/4YfAM/pkNk0zFljtMzfYHTMOuJ03jvkqztbXe7GnbGOymZ1daA3E1MNBvbqo6P/SakONNgHjJVaorKPw0/2LNgZtrJpoZSy4PnqfPXn5tcLvdnmO/YMNk8+LmGSa/7d7g1rv9Zd7YUmk2H1xidhxeHbwrbRt5T1+HdK0GImHvToU931ytrpLueTiOq9UC6SJMMAZhNPI7ll5hZi+/xjy8+ufmyXWueX7TrSbfdK+pb37crNn7gtl8YIlpPtJoDnTsMO09h4JfOQBObF7jjeFfAPjOVBpwTHjPnvM2Vv/TfJNw7Kw9jGZ+Y2nwq3zpzkdN475FZufh1eZQ525edQMiYC+eI7gAeE667+Elns6cK13cCcbg2IY1doe6p9Z7prrpfrN2X4XZdWQ9G9cAQuy6ldAvALSznQYcE65W02nANGCJX/R2sdwLm2cEt+btwjgWxQHpPxPA9Z2BaRVjfk+692Fw+99NXABwARBlDuR0Nlhg9+zGm4Nmz4EzQDLYXSTt/I2gJpxFAxZWlh/3FzR/mn8UDX/28h8Yve0es+XgUtPd1y5dxwCMkH1DJvQa4TuXSPe/oufqzDVcAHABEEYOTK6+IHj33b4q18Z2tEBqzFn54ygeA/y06BuwNM93nuUCgAuAkeaA3aJ20ZY7TdOhFRwpC6SUfXQX/gWAulO6/xW18uqJb3F91cEFABcAw33X3h4+Y8+RN+xFD6Re7Y65oV8AeL56UboHFrWyfMah+dP8h7rNrb29bxfw9fR3SdcjAAW0rkVHcQdgm3QPLGqeVjdzAcAFwKly4M66K0x98xO8hw8Usb1tm8K/ANCqr2T1xDdK98Gi5WlnBRcAXAC8OgeyZu6q64KjQDluFohGZ++RxAytfYsnil5Rtij7Uek+WJSm1GbOtFdgXABwAfDybf6q84Jn+y1Ht0rXGyD1dh5eY5Jkeu0loV8A5Cqz46R7YVGyA0/zp/nbHLBH2NZsf9B09ByWrjFAkRgwK3cvMEliT8kMvWfk1X9K98Ki5Gr1Ky4AivsCYGrNxaaq6T7TzVG2QEHtOtJo1rfoRI16JKcCauVK98Ki5GrnBekGRMiMweTqC03l1pmmq/eodE0BipI9orq1c5dJErvfR+gXAL6aI90Li87cuRNf52qnjQZcXBchN1WdH0xibvUDcvoH+swdS69I3B4a9m2gCOpSXrofFp2yyvF/L92MiMKNQS4/3jy3cSrb8wIxsHF/jZmz6icmaTbsrw69NrnsBVB4ru9cTQMujouQexquNruOrJOuHQBe8sjqElPVNDtx42GP6w7/AsDpsXekBdpg8fJ850HpxkREv12vvWU3MNAvXTcAvORIV0twR25b67LEjUl7T2sktWpS5bj3SvfEouJqZzsNOL0XIXbLXltoAMSL/eVvLwCSuQB3IFhH5IVds6oy/yjdE4uGW+H8sXSDIqIZg9/WfSs4lQ9A/Ni7cbctuTx4LJdUdmtwL+S6lfPV+dJ9sWi4+cxYGnDaLkKy5vlNt5je/m7p+gDgJOzW2na+2lcAk+rBlT+KoH6p70r3xaLhafVf8g2LCGsMptdeGhQWAPFmz9ewczZpGwAdb35jafj121c3SvfFouH66m4acDouQGxBaes+IF0TAJxGS/u24E6dff6fpEOAXumFzTNCr2OuVrOk+2LRcLWzTLpxEaMbA7sQZ/GOhzipD0iIZzZMCuau3U8/yWp3zIniAmCBdF8sCiUVY17vaaeTBpzcixC7g9i+o1uk6wCAYbw+Z0/atPM3v+3eRI/bqj3PRVDXVL10bywKpXrcJ6QbGDHyMXhgxQ9Ne88h6RoAYBjyTfe+PId3Hl6d6LHbcnBp6DXcvpYu3RuLgudnv0gDTuZFiF05bPcQB5AcPf1dZnrtJcEcnlL9BdM/0GuSbG/bpijqW6d0bywKrnZukG5kxPDGoDw/wazY/Yz0vAcwAnXNj708lx9f++vEj6FddOxFUMfL8hPeLt0fU8/TznwacHIuQqbVftHsOLRKes4DGIG+/h5z6+Ivvzyf1+x9IfHjaO9Cejobeq2bpLMfku6PqedqtUW6qRFDG4M7ln7DHOrcIz3fAYzQ8t1PvTyfy/PnJvr1v+PdXDMx/DruO/8s3R9TbUbdWW9wteqjASdjS9+27v3S8xzACNln/bcv/drLczqJx/+ezIwlXw295pX5arx0j0w1e4tFurERpx+DWQ1Xm46ew9JzHMAorNqz8HfmtT2ZMy3uabg6gjsA6mvSPTLVcn7mczTgeF+E3NtwTWpuEwLF/OvfPsI7fm6n6XHenJU/Dr32uTpzjXSPTDVPO9+QbnDEqbf17enrlJ7bAEZp2a75r7iw/36qxvTxtb+O4A6A8wvpHplqrq+upwHH8yLk4dU/5yQ/IAXsRfwti7/0O/N76c5HTZos2BAbfq0AACAASURBVDA5/DsAvpOT7pGp5vrObOlGR7x6DGYv/4Hp6euQntMAQlCz/YHfmd85nU3dgt5FW+6MopbfLt0jU83TTp4GHK+LkLvqv80zfyAlOnvbzNSai35njs9ZdZ1Jm5rtD4ZfD33nQekemWqer5qlGx7xv2NgX6VJ2y8DoJhVnOCX8crdC0zaLNs1L4Jarp6R7pGpNeXpzJs8X/XTgOOzw9+Bjh3S8xhASFo7d7184t+xmJSfkMo7fCv3PBt6TXS1qpLuk6mV89XHpJseMTgGU6ovNLvbNkjPYQAhemzt9a+qcU803pDKMW7cVxn+BYCvVkn3ydTyKtVnacBxuAjJmnUtWnr+AghRU+vyE873LQfrUjnOmw7URnAHgCOBo7sA0M5F8s2P0NtmSc9dACEaGOg3dy+76lX17bYlXwn+szTa1toQRT3fF10HLHKe73yHBix7ATJ31U9TWxCAYnX8gT/HR77pXpNWzYfXhn8HwHcOS/fJ1HK1+jkXAHLN3x4K0pHCxUBAMbML/KbXXnKCOZ8NFgWm1d6jm8O/ANBOl3SfTC3XdyZzASDT/CdXX2Bajm6VnrMACrQjnr3bl2YHO5qjuAMwYMwZr5HulanELoByv/7X7quQnq8AQrbj8Orgl/6J5vz6lnyqx/tIV0sktdK+ri7dK1PJbrLAHYDCN/8n17nScxVAyPoH+k648M/GjCWXB/95mh3tPhjNBUBt5kzpXplKnu8s5QKgsM3/1sVfTuUmIECxq90x96TzfvGOh0zatfcciqRm3uBn/lC6V6aSq9UWLgAKeQGQNdtal0nPUwAhO9S520yu+vwJ5/1NVeebjp7DqR/zzt4jkdTN0orM+6R7ZSrZVyy4ACjcBcALm2+TnqMAQjcQLPA72by3iwKLQVfv0UjqppvPfFi6V6ZOyeqJb7QrLLkAKEzz/23dt0xvf7f0HAVQoHf+j8Xetk1FMebdfR2R1M7y6rEfke6XqVNePfbdNP/CNH979veuI43S8xNAyA537QvO8TjZ3J+z6idFM+Y9/V1cACTFpMpx7+UCoDAXAAs2TpGemwAi8NDqn51y7m9trS+ace/r7+ECICm8KueDXABE3/yn1lwUrI4FUFzH396z7LvB+oBi0T/QxwVAUnAUcGF+/TfselJ6XgII2aHOPWZK9RdOOfcb9y0qqnHvG+jlAiApvKrsX3MHINrmf0/D1Rz0A6TMgBkwD6780WnP+Uj7xj+v1NPXyQVAUpRVjv97LgCivADIBqdjAUiX6qb7Tzv/l+2aZ4pNV0SvAfIWQATc/PhPcQEQ3QUA2/0C6bPryDpTnj/3lHP/1sWXFeUrv+0R7QTIBUAEvErn37kAiKb55/LjzYGOHdLzEUDIt7jvrPvmaed/fXPx/fq32roPRFJPSxc5H4+iBxa1nFbncAEQzQVAsez8BRSTp9eXn3bu31Kkv/6P7YngRVFTqzL/KN0vU6fMV+O5AIjgdlV+QrAvOIDieeXvWCzbNd8Uq9bOXZFcAJTlnc9I98vU8bRzARcA4SfrcxunSc9DACFqad920oN++PX/vw507IjkAiCXz06Q7pepwwVA+IlqT/060tVC8QVS9Nx/Zv2VQ5r/xb7nx76jWyK5AHB19vPS/TJ1eAQQfqI+v+kW6TkIoMDP/W3cWXeF6R/oLeqx33l4dSQXAGX5jCPdL1OHRYAh36bSWXOwY6f0HAQQkhW7nxny/F/X4hf9uG8+uCSqOwBnS/fL1CnzM2Oi+LKKNR5ZU1L0BQBIC3t656Sq84Y09+9tuKao9vw/mcZ9lZHU1rJ89t+k+2XqsBFQuElaTKd+AWnW3tNqblvylSHP/abWBuk/OXF3TLzhhO/8s3S/TB22Ag4vQe3mIPwCAJLPPsc/3T7/x8fDq38u/SfHxtKdj0RyAeDmnb+V7pepw2FA4SVosa/+BdLi+U23DmvHT7vyHYOqmmZHdAcg81fS/TJ1yhZlPxrJl1VkcXPNRGNfFQJQHJv9HIuFm6ZL/8mx8uKW2yOpsW4+82Hpfpk6XpXzQenmmYZYsHGK9LwDMEo7Dq0yk/IThjzvp9ZcZDp6DjPux1mwYXIkNba0IvM+6X6ZOpMqx71XunmmIWzhAJBchzr3mOm1lwxr3tc3PyH9Z8fOo2t+FU2drTrnPdL9MnXKq8e+W7p5Jj1mLLncDPD6D5BY3X3t5q76bw9r3tudAYt9058Tmb38B5HU2dKFZ79Dul+mzoy6s97g+s6AdBNNcvhb75aecwBGqH+gzzy0+mfDnvdbD/LK74ncvvRroddY26NKKsa8XrpfppLrO4elm2iSY397E8UXSCh7cNdw5/wTjTdI/9mxNbn6ggjqrDoo3SdTy9Vqs3QTTWrMavie9HwDMEI12x8c9pyfUn0hh32dRHdfR0S1Vm2Q7pOp5frOEulGmtSo3TGH4gsk0Np9FcbT2WHP+bqdj0n/6bHV2rkrkjrr+k6NdJ9MLdd3npZupEkNNgABkqepdfmwXvc7Fnct+w4L/06h+fDaqGrtfOk+mVqeVvdKN9Ikht0nnK1/gWTZ07YpuI0/kpM+bYPDyW3cXx1JrXV9dbd0n0wtz1c3STfTJMazG2+mFgAJcrCj2UyvvXRE890uFsSp1TfPi+gCwMlJ98nU8rTzM+lmmsTYdKCWegAkRFv3/hG/onbr4i+brt6j0h8h9iq23BFRvVU/ke6TqeX6mW9LN9OkhT0jvKevQ3q+ARgCu13vzPr/5GI/Yo+vvT6SepvT2W9J98nUcnV2onRDTVrMWXUdhRdIyC5/9nXdkc71p9eXS3+ExLin4eqoau4F0n0ytcryzmekG2rSIt90r/RcA3Aavf3d5sGVPxrxPL9l8ZdMZ+8RxnmI7OFIXgT1tszPjJHuk6mV89XHpBtq0oJtQIH4N/+RbPF7fGzYXyX9MRLDrpGIqt66HAUcnSlPZ97k+apfuqkmJezrQCwIAuKrb6B31KfSPbU+J/0xEmVv26Zomr9WfSWrJ74xwhYI11c7pRtrUsJuBgIgvc3/tiWXc5E/TBsi2gPA81UTHTpinnby0o01KcH7wEA8DQz0m/mNpaOc41ke8Y3A4h0PRVVzF3EBEPkFALsBDjUhV+99PvzKBWBU+gd6g1P6RttwXtg8g29iBOwjkyguAFx2AYye66vrpX9ZJyX2Ht1MgQBipK+/Z9S3/W3MrL8yWDyI4ZsV2SuA6pcFaIHFzdPON6Qba1IWAFIggPQ1f7u5l13IhuEbMANmctXnI6q72cul+2PqeZXqs9LNNQlxx9JvUB+AmOjp7zJzV10Xytyub35C+uMkVmtnc3R1t9L5d+n+mHqTdPZD0s01CWF/aQCQ19PXaeas+kko8/rh1b/gZM9R2Li/JrKaW6rHf0C6P6ZeScWY13va6ZVusHGPyq0zw6tgAEbE7s533/JrQ5nT9qAfe1YARq5m+4OR1FvXd3rmzp34Oun+WBRcrbZIN9i4x6o9C6kTgKC27gPBXhxhrelpam3g+xylJ9e5UV0AbJTui0XD9dUT0g027rHz8BqKBSBkf/v2YJOesOZzVdN9fJchGM1Ji96pwlePSvfFouFp9WvpBhv3ONy1l4IBCNjdtsFMr70k1BM97cZBGB27Lbq9kxJNzVW8AlgoZXl1sXSDjXdkg1eOABSWPXxrcvWFoc3lGUsu57l/SLa1NkRWc91KdWHBGmCxK13kfFy+ycY37K8PAIVl192U5yeENo/tP4tHeeGp2f5AZDW3bFH2o9J9sWjY1ZaurzqkG21c455l3w1x2gAY2v7y4d5eXrZrPgMfokfX/DKamuur9hJT8lrpvlhUPK3qpRttXGPwXWEAhdjX/5kNk0Kfw0+u8/jyQja99tKIaq5aLN0Pi46n1V3SjTausWDDZIoHELHuvnbz0KqfhT5/ZzV8j228Q3aoc09k9db11Z3S/bDouL66VrrRxjVe5JQwIFKHOnebu+q/Hfrctb9Sj3Tt49sLWWNLZWT1NqfV96X7YdFxdfZs6UYb19Db7qGAABFpPrw2ktvJdtHfjkOr+N4isHDT9MjqbVne+Yx0Pyw6N/iZP5RutHGN2h1zKCJABBr3LTI3VZ0fybxdsfsZvrOI3Fn3zcjq7Q1+5g+l+2FR8nzVJN1s4xj1zY9TSIAQ2Y14Fm25M7I5+8Lm2/i+ImIfqUT1vblabZHug0XL1ep+6WYbx1i5ewHFBAhxsZ89XTPKt3b6B/r4viLcnyG6eqvule6DRcvT6rvSzTaOsXZfBcUECEHL0a3mjqXfiGyu3r3sKtPd18F3FaGn1nvR1du8+k/pPli0cosyfyfdbOMYdsUrgNHZdKDWTKn+QmTz9JbFl7HivwDsMcpRfYfli9Qnpftgke8I6ByWbrhxizV7XyzEvAJS+7y/cuvM0Hf2Oz4mV19g9rRtlP6oqbe/vSnKWnuIHQCFeVotlG64cQv7zAvA8LV1HzBzVv440vmZy48P7i4gevXNT0T2Pbq+87R0/yt69hhG6YYbt2ARIDB8Ta0N5pbFX4p8frLHf+HMWfWTKC8Aflr0DVhaTqtzpBtu3KJh15MFnGJAstkV+FVN90V4Vvz/RvX2+6U/btHo6D1iyvPnRvh9Zv9Duv8VvbL8hLe7WvVJN904RX3zPOm5ByTmHfH7V/y/gszLZzfeLP1xi0qUr/+5vtNTUjf+rUXfgOPA81WDdNONU9ijSQGc2sb9NWZqzcUFmZOPr70+WFyIwnls7f9E+J0qTgCMC1erKdJNN05hdywDcGJ9A73mhc0zIl3lf3zYRYW9/d18HQXU09cZ2ZbN3uAdgJx038NLPK2UdNONU9jzyQG82uGuvWb28msLNhdnL7+GjX4ErG/JR/q95vzM52jAMVFePfEtnq/apRtvXOKRNSUScw6INbtDZpQb+7wy7lr2HdPZe0T6YxelKHf/c7VzdMrTmTdJ9z0cx9PqGenGG5eYvfwH0vMPiI32nlbzROMNBZ2Ddyy9whztPiD90YuSfdxyc83E6C4AfGcezTdmclp9X7rxxiVuX/p16TkIxML6Fm2m115S0Pl325LLzaHOPdIfvaiPbI70O/ad70j3O7xCzlcfk268cQm7zagxA9LzEBDT0XPYzG8sLfjcs/vOt3Y2880Lemj1zyL9jt185sM04BjyfGeTdPONS3D7EcVq88El5tbFlxV8zk2vvdTsb98u/fGLWlv3/mCr5ci+Z99ZJ93ncBKe70yTbrxxiR2HV0vPRaCgunqPBpvtSMy3webfxDcurHbHnGi/a1/dRAOOqTJfjZduvHGJVXuek56LQMFsOVhnblvyFZp/kftt3bcizYFcZXacdJ/DSXjPnvM2Tzud0s03DuFvvVt6LgKR6+xtC/a9kJpn9lEDt/3jYdeRxki/a9dXHfaVcxpwjPE64GCyzmv8jfR8BCK1Zu+Lwa13qeY/Y8nlLPiLkagf/7haPSnd33AaZTrzdamCEKe4q/7b0vMRiMTBjp1mzqrrROfXHUu/EewqiHiwGy7Zt58ivgD4Cg045m6qOO+dnq+6pRuwdNiVsHY/bCAt+vp7gmN7o9zjfSgxs/5K08YmP7FiD0CLtvk7XaULz36HdH/DEHi+85R0A45D8CYA0mLzgSXB7nrSc+ruZVcFOwsiPvoHeguwAFQ9TvNNCHurRrpQxCGW7nxEem4Co9LauStYzyI9l45tsd3B3v6xPOMh6u/e1epS6b6GIZpSmzmTtwGcYCc0IIl6+rticbv/WDy65pcc6RtT9sTFiL//TttTaMAJ4vrqCemiIR2cCYCkGTADZtWehcGWutLz51jY1wz7B/qkhwYnsPPwmkLkwMPS/QzDlMtnviRdOOQjG2yNCSRBU+tyc0/D1TGYN/8bi7b+lnM1YuyJwjweuogGnDBl+Qlvtxs3SBcQ6Vi551npOQqckt1Ix95il54rx0dOZ0198+N8czFmt16OdN9/HWz92243mJPuZxgB11ePSBcS6ZjXeKP0PAVO6EhXS7B5S3n+XPF5cnxMrvq82bC/mm8t5gqyONR3HqT5JpTnZ74gXUykY2rNRWZgoF96rgIvsyvpK7fOjM0Cv+NjWs3FwXNlxFtL+7bgLk3U+ZDz1fnSfQwjVLJ64htd39krXVSkw+6RDUjr7usIVvZPqf6C+Jw4UdiDZA517pYeJgzBY2uvjzwfXF/tmVF31htowAnm+cqTLizSUdU0m6ICMd197aZm+4PBr2vpuXCymLPyx8F2soi/PW0bgwXOkeeFr26U7l8YpZyvPub6zoB0gZH+ZQNI/OK3W7ROjXHjt2HXIdjd5JAMD6/+ReQ54frOQNmi7EdpwCngalUpXWSkY2/bJul5iyLR0XPY5Lfda26umSie96eK8vwE07DrSenhwjA0R3zkr3fsAkA7L0j3LYTE9Z3LpItNPN5nBqJzqHOPeWHzjMhPZQsj7F2JptYG0iFRBswDK35YmBzxs1+kAadEScWYN7u+c0C66EiGPSzD7rIGhG3v0c3myXVu7F7nO9WBPiz2S57Ve58vUPNX+23PkO5bCJGn1c3ShUc6mg6tkJ7DSAl7MbnpQK2Zu+o68bweTjy1PhecM4DkLSS9ZfGXCpIjrlaTaL4pU75IfVK6+EjHk+s86XmMhOvqPWrqmh8zdyz9hng+Dycm5SeYZbvmSQ8fRqhiy50Fy5VSPe4T0v0KEXC1qpUuRNJFsK37AEUIw9ZydKt5ftMtZkr1heJ5PNy4dfFlpvnwWr71BG8VbRdsFiJXXK2qaL4pxWJAx+hts6TnMxLC3iq3J/Pdt/xa8SY+0pi76qemvadVeigxCvY7LFS+uFpdKt2nEBG7q5PnqybpoiQZ02sv4VxznNLutg3Br/24v8Z3qrALEu3mQyx8Tbb1LflC5s0Odv5LOa/S+aF0cZIOTgjEiQ7mqW9+IlghL52fYbzxsuPwar7kFJwZUaiFf54N3/mBdH9CxKbUZs70tHNIukhJ7wzIAUGwC/pW7l5gHlj534XZWrUAYY8VthsRIfnmrystWN64vnO4dOHZ76ABFwFPO+XShUo6uAtQvM/117Vo80TjDbE8jW80R/gO7urHXhdpYHO0kPnjalUq3ZdQIKUVmfe5vtMjXbQk49bFX2YtQJHo7e82mw4sNk+vL0/kKv7TxV3LvhO8pYB0aO85ZKbXXlqw/HF9pydXOfb9NOAi4mp1v3Thko6lOx+VnuuISNqb/mBkg62H+zjIJ1Xs3amC5pHv3CPdj1BgOZ09S76Ayca02i8GO2whPYum7Hapj6/9dSL24x9N3Fl3hdnJQr/UWbP3hYLnkpt3/pYGXIRcX1VIFzLpsL+gkOwDeOzOfA+u/JHJ5ceL51PUkdNZU7HlDh5fpTSXp9ZcVNic8p1npfsQhHhaKemCJh22aew6sl567mPIBsyeto3BcbtpeGVvuG+vsKNfOvX195hZDd8reE65Ons2DbiIub5TI13YpMM2kn6eo8ZWd1+H2bC/yizYMNncsvgy8XyR2NSncutMfvWn2HMbp0rkVl66/0BYTqtzpAtcHMLumob4sMfVrtj9jHl0za/MpKrzxPNDKmY1XB3sTIj0aty3SCi/sv8h3X8QA552FkkXOumw74Tvb2+SrgVFq6ev02w+uMS8uHlGsMBNOh+kw25DbN/rZyvfdNt3dIvIglVXO89L9x3ERE5nPi1d8OIQM+uvND19HdI1oSgMvPQsv3bHHDNn5Y+L+lf+K2Ne443mKKdWpp79jm9bcrlIjpXls/8m3XcQI/aKULrwxSHmN5ZK14XUsqfS2R3Ont14c3BErfR3HcdFflsP1kt/TSjQPhWzl/9AJM9c33laut8gZtz8+E9JF8C4xLJd8ymCIW27u621IVjANrjCOR377Ycd9tUvexBR/0AfeVcUBgq6z/8ro7Qy+0/S/QYxZK8MpYthHMLejt51pFG6SiTytv7utvXBgkr7Xv6k/ATx7zLuq/sXbpoebGCE4mH3cZDLO/W4dJ9BjHcHdH1nQLowxmWXwP3t26VrRezZMbKL1eY1/sZMq7lY/HtLSjy29npzoGOH9NeHAqtuul8s52xtZ9c/nJLnq0eli2OcDgw63LWXIvmK1/PsdqX2Ob7UAqYkx+zl15jth1aSU0WovnmeaO65vppD+8MpufnMh13tdEkXyjgtzCrm89UPduwM3sefv66sKDfhCSvuqv+2Wd+S57jeImWPH5dcA2Nrenn12I/Q/nBaru/kpAtmnOLehu8XzXPa1s5ms3L3AvPkOo+V+iFdQDbuq+R9/iK2as9z4udUuNq5gdaHISnLT3i7p9Vu6cYbt0JuD+tIZcPf86x5an3O3LbkK+LjnJa4s+6bZs3eF83AQL/0VwxB9o0i6bdfXF/tmVKbOZP2hyFzffVN6SIat7C3wPce3ZzYgmqb0Z62TcErZ3bRHrf0ozlXYu2+Cl7pg1my42HxmjUY2ctpfRiWElPyWlerOvnkjVdMqf5C8G57UjYbsQvOqrffbx5a/TMzpfpC8fFLa9jdDAc38RmQ/tohbsDobbPEc3IwVL2t5bQ/DJvrq3/ltcBXTyr7PK+q6b7Y3d616xQ2Hag1i7b+1ty3/FpTznv4kb/Hb++k2L0PgGPH+trHafKNf/C1P7vNO60PI+Zp52HpRI5rPLDih+ZI1z6xynewo9ms3vt8cJSoXWUu/ayxWGJ67aVGb7vHHOlqoevhZZ29R4INsKTz81i4vjOb1odR8SrP/XNPO53SyRzXmFpzsVnfogtyO3/H4dVm8Y6HgiNybROS/uzFFvc2XBPsgWB/5QGvvBi3Cz+lc/RYuL7qKNXjP0D7w6h5Wv1aOqHjHnNWXWdajm4N9aSwTQcWB/vo37/ih5yWJ7jmw256ZBdPAiey+cCS4DwH6Rp0fLha/ZzWh1BMeTrzJtdXjdJJnYRnws9vujW4FTjcQ3N2Hl5tlu58NHimzOt48t+lveiyj1fsdwOciF0DZB8Fxe7Rm++sK6kY82baH0JT5mfGsCBw6I8F6nY+dsJbxfbAHLt//qo9C4ODYO5puDq4cBAvGkSw14Nd3Gl3PwROpb3nkJm76qfxmze+6mfhHyLhaucO8QRPUNy+9GvBM2O7Mt/+Upi76jpzc81E8b+L+N3zHuzpbHvaNtLxMCRbDi41tyz+Ujznke9Mo/0hEqULz36H66ud4klOMAajyAF7Efb0+vJgjUX/QB9tD0NeiGvX5OTidsv/5eavmm+qOO+dtD9Exq1UF4onOsEYDDMHJld93sxfVxrcjekb6KXlYVjsXg8z66+M9bxzK53zaH2IHEcGy092Ymi/9J9c5wavafb0ddLyMGw9fR3mxc0zxA/zOW34zoO0PhTEpMpx7/W0Oiie9ARj8IocmFb7xZdv7/NLH6N91j9jyVeTMMcOleUn/AntDwXjaufKGCQ+wRiYO5ZeEWx/3Hx4LcfuYtTsqZ9PNN6QmNpSpjNfp/WhoIw54zWeVgulk58ozjGY1XB1cMhRmJsvobh197UHi/wmVZ0nnt9DDVerBbYW0/5QcOXV2T/1fLVfehIQ6R+Dm6rONw+v/rlp2PWk6PkLSJ/+gV6zYvczidte29WqxT6OpfVBjKuzn5eeCEQ6x2BazcXBzoh2LwX76wwIk92Ua12LNnfWXSGe6yOJXD47gdYHca6v7pSeDEQ6xsCeauhvvds0H2nkeT4ia/yNLZXBzo/S+T6KuEW67gMB79lz3mb3n47BpCASNgb29Sq777495fBAxw5aHiJj3wqxd5MS3viNp9Xakrrxb6X9IDZyOnuW56tu+clBJOHW/lPrPbOuxTddvUdpeYiUPZyrZvuDiXvGf6JwfafHq8r8o3S9B17F9Z2fSk8QIp5jcPvSr5sXNs8w21obgkVXQNTs+Q72KOfJ1ReI539oUen8kNaDWCoxJa/1fPWi+CQhxMfAnnD44MofmaU7HzEHO5rpdijYzn2r9jxn7m24RnwOhB2uVpVz5058nXSdB06qVI//ALsEFmfYX1qPrvlV8EpVe08rLQ8FYRf17Ty8Jvi1P6X6QvF5EFHzb7GvXdN6EHs5rc5xteqTnjSSR8wu3DQ9WGnc0r7NdPa2BYXK/k+70K2ptcHobbPMfcuvjf8e46cJeyzqcxunmq0H69l6FwU0EBzQY3eAvG3JV8TnQaThq37XdzLSdR0YMs93fiE+cQocdjX75gNLzMBA/5DLWGvnLvP8pluC0+qk//6hxu1Lv2Yqttxhdh5ezat6KKABs+tIo6nYcmeQg9LzoFDhaufHtB4kit2e0vXVI9KTpxBhVxfbE+dGo637QLDTnfRnOdX7+flt95q9bZtCK+fA6dgNoOzcembDTcHdJul5UOhwffUEW/0ikcryE97u+qpRehJFGfc0XB3i1rQDwVa35fkJ4p/L01kze/k1wfv5Bzt20qlQEP0DfcEmUPa1vTkrfxyTuSATrnbWly48+x3SdRwYsfJF6pOudo5KT6Yowi54i+Kc+a2t9SKPBOx6BFt0l+2aZ450tYT+uYBXsvNnx+HVZsnOR8wja0pSu4hvuOFqp61Uj/sErQeJ5/nZL0pPqLBj9vIfmN7+7sgquj3P3r5KF/1nyZr7VvyXqW+eZ452H6RDIdJf9/uObgneElmwcYq5e9lVBcrxZIXrOwOedi6SrttAaDxf3SQ9scIKu+r4aPeByFuFvQ0a5aMLe3v/cNfeyD8HivOX/Z62TWbtvopgwahdIJukha6S4Wrl0nqQKjPqznqDp51F0pMrjNhysK5g7zfb5/Bh/d12D/SqpvvYcx+hsfs9bD+00izf/XSw0+NDq39mZiz5anBnSXqeJjFc7bxQUjHm9dL1GghdefXYdyf90KA5q64raPtoPrx2VH+vLcaVW2eavUc3F/TvRvLZ11nbuvcHi/Lssbl1Ox8zL26eYZ5o/E3wCGxqzUXi8zFNYRdM36izx9dbqgAAC29JREFU76L1ILW8ynP/3PWdvdKTbWSRDfYXL7R7G74/rL/Tvi71wuZbg4sHex8BOKa7r8Mc6twTbKJj72St3feiqW9+wuSb7g32o5jXeKO5f8X/M7ctuZzn8wXf6W/sR6TrMxA5e5qV56t2+YY+vLCL5SSs3PPskE/Zs7vyNe6rDH6xEYUbA/uuuj3o6JVhN66xF43DjR2HVr38z7CN+vh/18rdC4KFdDbsOo7qpvuDuzzPbZxmntkwycxr/E1wK/6Blf9tZjV8z9xZd4W5ZfFlZlIRv1IX53B91eHmx3+K1oOi4fmZL9gtLqUn33DC/lKS0NPfVdTvQxOMQWpzYLAGXiBdj4GC83T2R+ITcBhh9/WXMqvhavHPTzAG5EC4OeD66lpaD4qW5zvTklBU7O1T+x6zFHvSmfQYEIwBORBi89dqhnT9BUTZ861d35kX98JyZ903jaS65sfEx4BgDMiBkJq/7zzN637AsTMDtKqLc3GxK/El2e15pceAYAzIgTByQC2eVjHm9yj+wEtyFeP/wPXVqrgWGOkLAHtIkPQYEIwBOTC6HHC1s/I3i8//fQo/8Ape1TnvievpgfZVKkl2r37pMSAYA3JgNDmgNkyqHPdeCj9wEqUVmfd52tkat0Izqeq8YGc0KRVb7hQfA4IxIAdGlgOudrZ7Vc4HKfzAadgdsTxfNcet2Ei+Bmi3IJb+/ARjQA6MoPn7ak9ZftxfUPiBIbITxk6cOBWc+ubHRZq/PXZ4Mueki3//BGMw7OavVUupHvcJCj8wTOU6+zeeVgeLfSvgjfurxT87wRiQA8POgUM5nT2Lwg+MUK7S+RdXO23xOQxoU8EvAOy+7vKfnWAMyIGh5oCtWezvD4R0eJDrOwfiUIDnrvppQZv/7rYNnK0eg++dYAyG3vxVq/3hQvEHQpJblPk7Tzv74lCIt7bWF6T5D5iB4GhW6c9LMAbkwBCbv+8cKK3M/hOFHwhZrmr8X7q+2ildjG5dfJlp6z4Q+QWAPepV+rMSjAE5MNQcULvLF6lPUviBiHiV5/65q9XmOCwI7Ovviaz5bz1YzxHANF+ab0JywPXVNvv6MoUfiFipHv8Bu6uW9KR/fO31pqe/K/Tmv/3QSl77i0FRJxiDIeWA76zLVY59P4UfKJDJNef+kaedFdJFelbD1eZIV0tozX/VnueCXQelPxfBGJADp88BVztryvIT/oTCDxSYPVQjDqcITq+9NGjcdtHeSLV17zfzGn9D0aXxkgOJyQG1uLx67Lsp/IAQe6ymp5358sXAMXcvu8psOlA7rDMDDnXuMZVbZ5rJVZ8X//sJxoAcGFoOuFotmFKbOZPCDwibO3fi6zzfmRaX4mXfEnhu41TTuG+R2Xd0i+nsbQte6uvp6zBHuvYFrxHWbH/Q3L/ihyans+J/L8EYkAPDyoHbSyrGvF667gE4Tk6r73u+6qeY0dDIAXIg7BxwfWfA0+qXFF0gpjztXOD6qoMGQAMgB8iBEHOgsyyvLpaubwBOw/Odf3Z9Zy8NgAZADpADo84BX+3P6cynKbxAQkzS2Q+5vmqkAdAAyAFyYBS3/TeWLcp+VLqeARjBa4KedhbRAGgA5AA5MOzmr50XbtTZd1F4gYSyq3VdrUoHF/BQBBkDcoAcGErzVzNm1J31Bun6BSAEnp/9oqudoxQ/GiA5QA6c4ld/m6ediyi6QApPE/S0WksDoAGQA+TAq3NAbfCqsn8tXacARKQsP+Htrq8eoQHQAMgBcuC4HJh/U8V576TwAilnzBmv8XT2R65WfTQBmgA5ULw5MFgD1C9LTMlrpesSgAJyfSfj+s4B6SJEMAbkgEjzb8lpdQ5FFyhS9hxv11cVFGCaMDlQXK/4lVZk3iddfwDE4JHAS+cIdEsXJoIxIAcibPy+08MtfwCvUpZX/+D5zjoKME2YHEhfDtidQcsqx/89pQ/ACZVXT3yLq9UU6WJFMAbkQIjNX6tZ3rPnvI2yB+C0cr463y4SogjTiMmB5OZAsNAvn51AyQMwLGX5CX/iabVQuogRjAE5MKLmv2BS5bj3UvYAjHiBoKvVV+yRoBRhGjE5EP8ccLVqzenst+zcpewBGDW3wvnj4DliDAocwRiQAyfNgfnl1dk/peQBCF2Zr8a72tlOAaYJkwPxyQFXO7vcSnUhJQ9ApEoXnv2O4E0BX/VLFz6CMSjmHLDHfNuje6fUZs6k7AEoGNdX/8rpgvJNgCjOMXB9Z2NZ3vkMJQ+AiJKKMW92tfqV66sO6YJIMAZFkQO+ane1+vmUpzNvouwBEGf3FbeLBO0tSfECSTAG6c2B+TdWjPsz6fkOAK9SWpn9J9d3amJQKAnGIDU54GpVl9OZT1NyACRj7wCtdksXToIxSPrqfvtO/9y5E18nPa8BYMjs3uP25DFPO53ShZRgDBKVA77qtm/asLofQKK5+cyHXe08xPqAGDQWIv6v9flqziSd/ZD0vAWA0HhV2b/2tJrLhYB8oyHiOAZqIcf1Akg118/8H3shIF9wCcYgDjmgFnpVmX+UnpcAUDBufvynOG1QuvkQgmOQ93T2Pyg5AIqWfb3J9VUFzYhmXBQ54KvqnJ/5nPS8A4DYcPOZsa52nhcv0ARjEEEOuL7znKuzZ0vPMwCIrXKd/Rt7wImrnS6aMc04yTng+k5PsN6FZ/wAMHRuhfPHg/sIqIPShZxgDIaVA746Yt/jz1WOfT9zHgBGqCw/4e05rb7v+aqJRkwjjvvOffai9aaK897JhAeAkMyoO+sNuXzmS3YRlXShJxiD3238qsrV6tKSijGvZ8IDQIRyVeP/0tWq1NPOPpoxzVjm175qtWtV7JoVJjsAFJg9E93V2Yl2PwF2GORCoECNv84e0FNSN/6tTHgAiIGyRdmP2uevrna2c1eAi4Fwc0DttnecyqvHfkQ6zwEAp1gr4Ors5wcPIFIdXAxwMTCiHPBVuz2YJ+er821OMeEAIEHKqye+xdOZc12tZrnaOcrFABcDp8kBe3T1fFerr9i3T6TzFwAQAvvM1l4MBCcSsskQbzK8/Ew/2HAqaPpTajNnMtkAIMXse9pupfNVz3ee4jFB8V0M2O/c1epJT2cvL1149juk8xEAIPSYwO7Rbhd52RXe0s2JiKjpa7V5cIvp7ERu7wMAXsWrPPfP7WtewaMC3zlMQ07oRYmv2gePm87+qHSR83FSHQAwZCUVY96c0+ocTzvlnu8s9bTTK97YiJONQa/rO0tc38nZOzp2jwhSHQAQ2kLCnM582v6qDBaO+c4BGrLMRYmrnTZPO/nBHSEz5/IsHwBQMCWm5LWletwn7Aryl44wXsMFQaQH7cy1B0PldPYsO/akOgAgVm8Y2LsEdh2BPRJ28FcqexAM49l9t72Qsns3DN5pyZxrj4aW/l4BABi2uXMnvi7nq48F5xb4zv+42nnM851Nru/0FOsdA/vZXd/Z6PnqUVerX3l+5gt2jOxYkWIAgNS7UWffZW9pDx5qlP2RfZQQHG40+Npan3SjHl2og4OvVtrNl1Tp4F2R7NmTdPZDHJ0LAMBJlKye+EZ7AE2ZnxnjaecCVztXur7zU1erSZ7v3GM3s3F9p8bTaoM9njbyX+3Bv0NtsP/OYCOdwb9h0uDf5Fxp/0b7t7r5zIfZPx8AgAKxv6rtHYXy6rHvtr+ybXh+5q/sHQYbXqX6bLDpke9k7B2HIAb/97PL8s5nXv7v+Zm/Ovb/b/9Z9p/JrXkAAAAAAAAAAAAAAAAAAAAAAAAAAAAAAAAAAAAAAAAAAAAAAAAAAAAAAAAAAAAAAAAAAAAAAAAAAAAAAAAAAAAAAAAAAAAAAAAAAAAAAAAAAAAAAAAAAAAAAAAAAAAAAAAAAAAAAAAAAAAAAAAAAAAAAAAAAAAAAAAAAAAAAIAzIvT/Abnilr6jAmNfAAAAAElFTkSuQmCC;" vertex="1" parent="1">
          <mxGeometry x="376.86" y="132" width="36" height="36" as="geometry" />
        </mxCell>
        <mxCell id="C2gctmfY5S7cEnwOES8Q-12" value="" style="dashed=0;outlineConnect=0;html=1;align=center;labelPosition=center;verticalLabelPosition=bottom;verticalAlign=top;shape=mxgraph.weblogos.github" vertex="1" parent="1">
          <mxGeometry x="250.22" y="340" width="40.56" height="40.56" as="geometry" />
        </mxCell>
        <mxCell id="C2gctmfY5S7cEnwOES8Q-13" value="Start Pipeline" style="rounded=1;strokeWidth=0;fontSize=12;fillColor=#dae8fc;strokeColor=#6c8ebf;html=1;whiteSpace=wrap;align=center;" vertex="1" parent="1">
          <mxGeometry x="400" y="489" width="110" height="30" as="geometry" />
        </mxCell>
        <mxCell id="C2gctmfY5S7cEnwOES8Q-23" style="edgeStyle=orthogonalEdgeStyle;rounded=0;orthogonalLoop=1;jettySize=auto;html=1;exitX=0.5;exitY=1;exitDx=0;exitDy=0;entryX=0.5;entryY=0;entryDx=0;entryDy=0;" edge="1" parent="1" source="C2gctmfY5S7cEnwOES8Q-15" target="C2gctmfY5S7cEnwOES8Q-16">
          <mxGeometry relative="1" as="geometry" />
        </mxCell>
        <mxCell id="C2gctmfY5S7cEnwOES8Q-15" value="Checkout" style="rounded=1;strokeWidth=0;fontSize=12;fillColor=#d5e8d4;strokeColor=#82b366;html=1;whiteSpace=wrap;align=center;" vertex="1" parent="1">
          <mxGeometry x="400" y="590" width="110" height="30" as="geometry" />
        </mxCell>
        <mxCell id="C2gctmfY5S7cEnwOES8Q-24" style="edgeStyle=orthogonalEdgeStyle;rounded=0;orthogonalLoop=1;jettySize=auto;html=1;exitX=0.5;exitY=1;exitDx=0;exitDy=0;entryX=0.5;entryY=0;entryDx=0;entryDy=0;" edge="1" parent="1" source="C2gctmfY5S7cEnwOES8Q-16" target="C2gctmfY5S7cEnwOES8Q-19">
          <mxGeometry relative="1" as="geometry" />
        </mxCell>
        <mxCell id="C2gctmfY5S7cEnwOES8Q-16" value="Build with maven" style="rounded=1;strokeWidth=0;fontSize=12;fillColor=#d5e8d4;strokeColor=#82b366;html=1;whiteSpace=wrap;align=center;" vertex="1" parent="1">
          <mxGeometry x="400" y="640" width="110" height="30" as="geometry" />
        </mxCell>
        <mxCell id="C2gctmfY5S7cEnwOES8Q-18" style="edgeStyle=orthogonalEdgeStyle;rounded=0;orthogonalLoop=1;jettySize=auto;html=1;exitX=0.5;exitY=1;exitDx=0;exitDy=0;entryX=0.371;entryY=0.006;entryDx=0;entryDy=0;entryPerimeter=0;" edge="1" parent="1" source="qV9i3jS8pgXNSxZ-idtM-23" target="C2gctmfY5S7cEnwOES8Q-15">
          <mxGeometry relative="1" as="geometry" />
        </mxCell>
        <mxCell id="C2gctmfY5S7cEnwOES8Q-22" style="edgeStyle=orthogonalEdgeStyle;rounded=0;orthogonalLoop=1;jettySize=auto;html=1;exitX=0.5;exitY=1;exitDx=0;exitDy=0;entryX=0.5;entryY=0;entryDx=0;entryDy=0;" edge="1" parent="1" source="C2gctmfY5S7cEnwOES8Q-19" target="C2gctmfY5S7cEnwOES8Q-20">
          <mxGeometry relative="1" as="geometry" />
        </mxCell>
        <mxCell id="C2gctmfY5S7cEnwOES8Q-26" value="Tests OK ?" style="edgeLabel;html=1;align=center;verticalAlign=middle;resizable=0;points=[];" vertex="1" connectable="0" parent="C2gctmfY5S7cEnwOES8Q-22">
          <mxGeometry x="0.1" y="-1" relative="1" as="geometry">
            <mxPoint as="offset" />
          </mxGeometry>
        </mxCell>
        <mxCell id="C2gctmfY5S7cEnwOES8Q-31" style="edgeStyle=orthogonalEdgeStyle;rounded=0;orthogonalLoop=1;jettySize=auto;html=1;exitX=0;exitY=0.5;exitDx=0;exitDy=0;entryX=0;entryY=0.5;entryDx=0;entryDy=0;" edge="1" parent="1" source="C2gctmfY5S7cEnwOES8Q-19" target="C2gctmfY5S7cEnwOES8Q-30">
          <mxGeometry relative="1" as="geometry">
            <Array as="points">
              <mxPoint x="400" y="730" />
              <mxPoint x="380" y="730" />
              <mxPoint x="380" y="855" />
            </Array>
          </mxGeometry>
        </mxCell>
        <mxCell id="C2gctmfY5S7cEnwOES8Q-19" value="Execute tests" style="rounded=1;strokeWidth=0;fontSize=12;fillColor=#d5e8d4;strokeColor=#82b366;html=1;whiteSpace=wrap;align=center;" vertex="1" parent="1">
          <mxGeometry x="400" y="690" width="110" height="30" as="geometry" />
        </mxCell>
        <mxCell id="C2gctmfY5S7cEnwOES8Q-25" style="edgeStyle=orthogonalEdgeStyle;rounded=0;orthogonalLoop=1;jettySize=auto;html=1;exitX=0.5;exitY=1;exitDx=0;exitDy=0;entryX=0.5;entryY=0;entryDx=0;entryDy=0;" edge="1" parent="1" source="C2gctmfY5S7cEnwOES8Q-20" target="C2gctmfY5S7cEnwOES8Q-21">
          <mxGeometry relative="1" as="geometry" />
        </mxCell>
        <mxCell id="C2gctmfY5S7cEnwOES8Q-20" value="Deploy" style="rounded=1;strokeWidth=0;fontSize=12;fillColor=#d5e8d4;strokeColor=#82b366;html=1;whiteSpace=wrap;align=center;" vertex="1" parent="1">
          <mxGeometry x="400" y="740" width="110" height="30" as="geometry" />
        </mxCell>
        <mxCell id="C2gctmfY5S7cEnwOES8Q-32" style="edgeStyle=orthogonalEdgeStyle;rounded=0;orthogonalLoop=1;jettySize=auto;html=1;exitX=0.5;exitY=1;exitDx=0;exitDy=0;entryX=0.5;entryY=0;entryDx=0;entryDy=0;" edge="1" parent="1" source="C2gctmfY5S7cEnwOES8Q-21" target="C2gctmfY5S7cEnwOES8Q-30">
          <mxGeometry relative="1" as="geometry" />
        </mxCell>
        <mxCell id="C2gctmfY5S7cEnwOES8Q-21" value="Clean workspace" style="rounded=1;strokeWidth=0;fontSize=12;fillColor=#d5e8d4;strokeColor=#82b366;html=1;whiteSpace=wrap;align=center;" vertex="1" parent="1">
          <mxGeometry x="400" y="790" width="110" height="30" as="geometry" />
        </mxCell>
        <mxCell id="C2gctmfY5S7cEnwOES8Q-30" value="End pipeline" style="rounded=1;strokeWidth=0;fontSize=12;fillColor=#dae8fc;strokeColor=#6c8ebf;html=1;whiteSpace=wrap;align=center;" vertex="1" parent="1">
          <mxGeometry x="400" y="840" width="110" height="30" as="geometry" />
        </mxCell>
        <mxCell id="C2gctmfY5S7cEnwOES8Q-34" style="edgeStyle=orthogonalEdgeStyle;rounded=0;orthogonalLoop=1;jettySize=auto;html=1;exitX=0.5;exitY=1;exitDx=0;exitDy=0;" edge="1" parent="1" source="qV9i3jS8pgXNSxZ-idtM-29" target="qV9i3jS8pgXNSxZ-idtM-29">
          <mxGeometry relative="1" as="geometry" />
        </mxCell>
      </root>
    </mxGraphModel>
  </diagram>
  <diagram id="zLarELzzPluKcPJpncx5" name="Page-2">
    <mxGraphModel dx="2058" dy="820" grid="1" gridSize="10" guides="1" tooltips="1" connect="1" arrows="1" fold="1" page="1" pageScale="1" pageWidth="827" pageHeight="1169" math="0" shadow="0">
      <root>
        <mxCell id="0" />
        <mxCell id="1" parent="0" />
      </root>
    </mxGraphModel>
  </diagram>
</mxfile>
